ISO-10303-21;
HEADER;
/* Generated by software containing ST-Developer
 * from STEP Tools, Inc. (www.steptools.com) 
 */

FILE_DESCRIPTION(
/* description */ (''),
/* implementation_level */ '2;1');

FILE_NAME(
/* name */ 
'D:\\Programm\\YandexDisk\\YandexDisk\\\X2\041704300433044004430437043A0438\X0\\\
\X2\041F0440043E0435043A0442044B\X0\\\Siemens\\\X2\04210443044504300440044C\X0\ 
\X2\04340432043504400438\X0\.stp',
/* time_stamp */ '2019-09-16T20:13:30+03:00',
/* author */ ('Alexey'),
/* organization */ (''),
/* preprocessor_version */ 'ST-DEVELOPER v17',
/* originating_system */ 'Autodesk Inventor 2019',
/* authorisation */ '');

FILE_SCHEMA (('AUTOMOTIVE_DESIGN { 1 0 10303 214 3 1 1 }'));
ENDSEC;

DATA;
#10=MECHANICAL_DESIGN_GEOMETRIC_PRESENTATION_REPRESENTATION('',(#13),#385);
#11=SHAPE_REPRESENTATION_RELATIONSHIP('SRR','None',#392,#12);
#12=ADVANCED_BREP_SHAPE_REPRESENTATION('',(#14),#384);
#13=STYLED_ITEM('',(#401),#14);
#14=MANIFOLD_SOLID_BREP('\X2\04220432043504400434043E0435\X0\ \X2\04420435043B043E\X0\1',
#228);
#15=FACE_BOUND('',#43,.T.);
#16=FACE_BOUND('',#52,.T.);
#17=PLANE('',#253);
#18=PLANE('',#254);
#19=PLANE('',#255);
#20=PLANE('',#256);
#21=PLANE('',#257);
#22=PLANE('',#258);
#23=PLANE('',#259);
#24=PLANE('',#260);
#25=PLANE('',#261);
#26=PLANE('',#262);
#27=CYLINDRICAL_SURFACE('',#251,2.35);
#28=FACE_OUTER_BOUND('',#40,.T.);
#29=FACE_OUTER_BOUND('',#41,.T.);
#30=FACE_OUTER_BOUND('',#42,.T.);
#31=FACE_OUTER_BOUND('',#44,.T.);
#32=FACE_OUTER_BOUND('',#45,.T.);
#33=FACE_OUTER_BOUND('',#46,.T.);
#34=FACE_OUTER_BOUND('',#47,.T.);
#35=FACE_OUTER_BOUND('',#48,.T.);
#36=FACE_OUTER_BOUND('',#49,.T.);
#37=FACE_OUTER_BOUND('',#50,.T.);
#38=FACE_OUTER_BOUND('',#51,.T.);
#39=FACE_OUTER_BOUND('',#53,.T.);
#40=EDGE_LOOP('',(#157,#158,#159,#160));
#41=EDGE_LOOP('',(#161,#162,#163,#164));
#42=EDGE_LOOP('',(#165,#166,#167,#168));
#43=EDGE_LOOP('',(#169));
#44=EDGE_LOOP('',(#170,#171,#172,#173,#174,#175,#176,#177));
#45=EDGE_LOOP('',(#178,#179,#180,#181));
#46=EDGE_LOOP('',(#182,#183,#184,#185));
#47=EDGE_LOOP('',(#186,#187,#188,#189));
#48=EDGE_LOOP('',(#190,#191,#192,#193));
#49=EDGE_LOOP('',(#194,#195,#196,#197));
#50=EDGE_LOOP('',(#198,#199,#200,#201));
#51=EDGE_LOOP('',(#202,#203,#204,#205));
#52=EDGE_LOOP('',(#206));
#53=EDGE_LOOP('',(#207,#208,#209,#210,#211,#212,#213,#214));
#54=LINE('',#326,#80);
#55=LINE('',#330,#81);
#56=LINE('',#335,#82);
#57=LINE('',#337,#83);
#58=LINE('',#339,#84);
#59=LINE('',#340,#85);
#60=LINE('',#344,#86);
#61=LINE('',#346,#87);
#62=LINE('',#348,#88);
#63=LINE('',#349,#89);
#64=LINE('',#351,#90);
#65=LINE('',#353,#91);
#66=LINE('',#354,#92);
#67=LINE('',#357,#93);
#68=LINE('',#359,#94);
#69=LINE('',#360,#95);
#70=LINE('',#363,#96);
#71=LINE('',#364,#97);
#72=LINE('',#366,#98);
#73=LINE('',#369,#99);
#74=LINE('',#370,#100);
#75=LINE('',#373,#101);
#76=LINE('',#374,#102);
#77=LINE('',#377,#103);
#78=LINE('',#378,#104);
#79=LINE('',#380,#105);
#80=VECTOR('',#269,3.25);
#81=VECTOR('',#274,2.35);
#82=VECTOR('',#279,10.);
#83=VECTOR('',#280,10.);
#84=VECTOR('',#281,10.);
#85=VECTOR('',#282,10.);
#86=VECTOR('',#285,10.);
#87=VECTOR('',#286,10.);
#88=VECTOR('',#287,10.);
#89=VECTOR('',#288,10.);
#90=VECTOR('',#289,10.);
#91=VECTOR('',#290,10.);
#92=VECTOR('',#291,10.);
#93=VECTOR('',#294,10.);
#94=VECTOR('',#295,10.);
#95=VECTOR('',#296,10.);
#96=VECTOR('',#299,10.);
#97=VECTOR('',#300,10.);
#98=VECTOR('',#303,10.);
#99=VECTOR('',#306,10.);
#100=VECTOR('',#307,10.);
#101=VECTOR('',#310,10.);
#102=VECTOR('',#311,10.);
#103=VECTOR('',#314,10.);
#104=VECTOR('',#315,10.);
#105=VECTOR('',#318,10.);
#106=CIRCLE('',#249,4.15);
#107=CIRCLE('',#250,2.35);
#108=CIRCLE('',#252,2.35);
#109=VERTEX_POINT('',#323);
#110=VERTEX_POINT('',#325);
#111=VERTEX_POINT('',#329);
#112=VERTEX_POINT('',#333);
#113=VERTEX_POINT('',#334);
#114=VERTEX_POINT('',#336);
#115=VERTEX_POINT('',#338);
#116=VERTEX_POINT('',#342);
#117=VERTEX_POINT('',#343);
#118=VERTEX_POINT('',#345);
#119=VERTEX_POINT('',#347);
#120=VERTEX_POINT('',#350);
#121=VERTEX_POINT('',#352);
#122=VERTEX_POINT('',#356);
#123=VERTEX_POINT('',#358);
#124=VERTEX_POINT('',#362);
#125=VERTEX_POINT('',#368);
#126=VERTEX_POINT('',#372);
#127=VERTEX_POINT('',#376);
#128=EDGE_CURVE('',#109,#109,#106,.T.);
#129=EDGE_CURVE('',#109,#110,#54,.T.);
#130=EDGE_CURVE('',#110,#110,#107,.T.);
#131=EDGE_CURVE('',#110,#111,#55,.T.);
#132=EDGE_CURVE('',#111,#111,#108,.T.);
#133=EDGE_CURVE('',#112,#113,#56,.T.);
#134=EDGE_CURVE('',#114,#113,#57,.T.);
#135=EDGE_CURVE('',#115,#114,#58,.T.);
#136=EDGE_CURVE('',#112,#115,#59,.T.);
#137=EDGE_CURVE('',#116,#117,#60,.T.);
#138=EDGE_CURVE('',#117,#118,#61,.T.);
#139=EDGE_CURVE('',#118,#119,#62,.T.);
#140=EDGE_CURVE('',#119,#112,#63,.T.);
#141=EDGE_CURVE('',#115,#120,#64,.T.);
#142=EDGE_CURVE('',#120,#121,#65,.T.);
#143=EDGE_CURVE('',#121,#116,#66,.T.);
#144=EDGE_CURVE('',#122,#117,#67,.T.);
#145=EDGE_CURVE('',#123,#122,#68,.T.);
#146=EDGE_CURVE('',#118,#123,#69,.T.);
#147=EDGE_CURVE('',#124,#123,#70,.T.);
#148=EDGE_CURVE('',#119,#124,#71,.T.);
#149=EDGE_CURVE('',#113,#124,#72,.T.);
#150=EDGE_CURVE('',#125,#114,#73,.T.);
#151=EDGE_CURVE('',#120,#125,#74,.T.);
#152=EDGE_CURVE('',#126,#125,#75,.T.);
#153=EDGE_CURVE('',#121,#126,#76,.T.);
#154=EDGE_CURVE('',#127,#126,#77,.T.);
#155=EDGE_CURVE('',#116,#127,#78,.T.);
#156=EDGE_CURVE('',#122,#127,#79,.T.);
#157=ORIENTED_EDGE('',*,*,#128,.T.);
#158=ORIENTED_EDGE('',*,*,#129,.T.);
#159=ORIENTED_EDGE('',*,*,#130,.T.);
#160=ORIENTED_EDGE('',*,*,#129,.F.);
#161=ORIENTED_EDGE('',*,*,#130,.F.);
#162=ORIENTED_EDGE('',*,*,#131,.T.);
#163=ORIENTED_EDGE('',*,*,#132,.F.);
#164=ORIENTED_EDGE('',*,*,#131,.F.);
#165=ORIENTED_EDGE('',*,*,#133,.T.);
#166=ORIENTED_EDGE('',*,*,#134,.F.);
#167=ORIENTED_EDGE('',*,*,#135,.F.);
#168=ORIENTED_EDGE('',*,*,#136,.F.);
#169=ORIENTED_EDGE('',*,*,#128,.F.);
#170=ORIENTED_EDGE('',*,*,#137,.T.);
#171=ORIENTED_EDGE('',*,*,#138,.T.);
#172=ORIENTED_EDGE('',*,*,#139,.T.);
#173=ORIENTED_EDGE('',*,*,#140,.T.);
#174=ORIENTED_EDGE('',*,*,#136,.T.);
#175=ORIENTED_EDGE('',*,*,#141,.T.);
#176=ORIENTED_EDGE('',*,*,#142,.T.);
#177=ORIENTED_EDGE('',*,*,#143,.T.);
#178=ORIENTED_EDGE('',*,*,#144,.F.);
#179=ORIENTED_EDGE('',*,*,#145,.F.);
#180=ORIENTED_EDGE('',*,*,#146,.F.);
#181=ORIENTED_EDGE('',*,*,#138,.F.);
#182=ORIENTED_EDGE('',*,*,#146,.T.);
#183=ORIENTED_EDGE('',*,*,#147,.F.);
#184=ORIENTED_EDGE('',*,*,#148,.F.);
#185=ORIENTED_EDGE('',*,*,#139,.F.);
#186=ORIENTED_EDGE('',*,*,#148,.T.);
#187=ORIENTED_EDGE('',*,*,#149,.F.);
#188=ORIENTED_EDGE('',*,*,#133,.F.);
#189=ORIENTED_EDGE('',*,*,#140,.F.);
#190=ORIENTED_EDGE('',*,*,#135,.T.);
#191=ORIENTED_EDGE('',*,*,#150,.F.);
#192=ORIENTED_EDGE('',*,*,#151,.F.);
#193=ORIENTED_EDGE('',*,*,#141,.F.);
#194=ORIENTED_EDGE('',*,*,#151,.T.);
#195=ORIENTED_EDGE('',*,*,#152,.F.);
#196=ORIENTED_EDGE('',*,*,#153,.F.);
#197=ORIENTED_EDGE('',*,*,#142,.F.);
#198=ORIENTED_EDGE('',*,*,#153,.T.);
#199=ORIENTED_EDGE('',*,*,#154,.F.);
#200=ORIENTED_EDGE('',*,*,#155,.F.);
#201=ORIENTED_EDGE('',*,*,#143,.F.);
#202=ORIENTED_EDGE('',*,*,#155,.T.);
#203=ORIENTED_EDGE('',*,*,#156,.F.);
#204=ORIENTED_EDGE('',*,*,#144,.T.);
#205=ORIENTED_EDGE('',*,*,#137,.F.);
#206=ORIENTED_EDGE('',*,*,#132,.T.);
#207=ORIENTED_EDGE('',*,*,#156,.T.);
#208=ORIENTED_EDGE('',*,*,#154,.T.);
#209=ORIENTED_EDGE('',*,*,#152,.T.);
#210=ORIENTED_EDGE('',*,*,#150,.T.);
#211=ORIENTED_EDGE('',*,*,#134,.T.);
#212=ORIENTED_EDGE('',*,*,#149,.T.);
#213=ORIENTED_EDGE('',*,*,#147,.T.);
#214=ORIENTED_EDGE('',*,*,#145,.T.);
#215=CONICAL_SURFACE('',#248,3.25,0.785398163397448);
#216=ADVANCED_FACE('',(#28),#215,.F.);
#217=ADVANCED_FACE('',(#29),#27,.F.);
#218=ADVANCED_FACE('',(#30,#15),#17,.T.);
#219=ADVANCED_FACE('',(#31),#18,.T.);
#220=ADVANCED_FACE('',(#32),#19,.T.);
#221=ADVANCED_FACE('',(#33),#20,.T.);
#222=ADVANCED_FACE('',(#34),#21,.T.);
#223=ADVANCED_FACE('',(#35),#22,.T.);
#224=ADVANCED_FACE('',(#36),#23,.T.);
#225=ADVANCED_FACE('',(#37),#24,.T.);
#226=ADVANCED_FACE('',(#38,#16),#25,.T.);
#227=ADVANCED_FACE('',(#39),#26,.T.);
#228=CLOSED_SHELL('',(#216,#217,#218,#219,#220,#221,#222,#223,#224,#225,
#226,#227));
#229=DERIVED_UNIT_ELEMENT(#231,1.);
#230=DERIVED_UNIT_ELEMENT(#387,3.);
#231=(
MASS_UNIT()
NAMED_UNIT(*)
SI_UNIT($,.GRAM.)
);
#232=DERIVED_UNIT((#229,#230));
#233=MEASURE_REPRESENTATION_ITEM('density measure',
POSITIVE_RATIO_MEASURE(0.952),#232);
#234=PROPERTY_DEFINITION_REPRESENTATION(#239,#236);
#235=PROPERTY_DEFINITION_REPRESENTATION(#240,#237);
#236=REPRESENTATION('material name',(#238),#384);
#237=REPRESENTATION('density',(#233),#384);
#238=DESCRIPTIVE_REPRESENTATION_ITEM(
'\X2\041F043E043B0438044D04420438043B0435043D\X0\, \X2\0432044B0441043E043A0430044F\X0\ 
\X2\043F043B043E0442043D043E04410442044C\X0\',
'\X2\041F043E043B0438044D04420438043B0435043D\X0\, \X2\0432044B0441043E043A0430044F\X0\ 
\X2\043F043B043E0442043D043E04410442044C\X0\');
#239=PROPERTY_DEFINITION('material property','material name',#394);
#240=PROPERTY_DEFINITION('material property','density of part',#394);
#241=DATE_TIME_ROLE('creation_date');
#242=APPLIED_DATE_AND_TIME_ASSIGNMENT(#243,#241,(#394));
#243=DATE_AND_TIME(#244,#245);
#244=CALENDAR_DATE(2019,16,9);
#245=LOCAL_TIME(20,5,32.,#246);
#246=COORDINATED_UNIVERSAL_TIME_OFFSET(0,0,.BEHIND.);
#247=AXIS2_PLACEMENT_3D('placement',#321,#263,#264);
#248=AXIS2_PLACEMENT_3D('',#322,#265,#266);
#249=AXIS2_PLACEMENT_3D('',#324,#267,#268);
#250=AXIS2_PLACEMENT_3D('',#327,#270,#271);
#251=AXIS2_PLACEMENT_3D('',#328,#272,#273);
#252=AXIS2_PLACEMENT_3D('',#331,#275,#276);
#253=AXIS2_PLACEMENT_3D('',#332,#277,#278);
#254=AXIS2_PLACEMENT_3D('',#341,#283,#284);
#255=AXIS2_PLACEMENT_3D('',#355,#292,#293);
#256=AXIS2_PLACEMENT_3D('',#361,#297,#298);
#257=AXIS2_PLACEMENT_3D('',#365,#301,#302);
#258=AXIS2_PLACEMENT_3D('',#367,#304,#305);
#259=AXIS2_PLACEMENT_3D('',#371,#308,#309);
#260=AXIS2_PLACEMENT_3D('',#375,#312,#313);
#261=AXIS2_PLACEMENT_3D('',#379,#316,#317);
#262=AXIS2_PLACEMENT_3D('',#381,#319,#320);
#263=DIRECTION('axis',(0.,0.,1.));
#264=DIRECTION('refdir',(1.,0.,0.));
#265=DIRECTION('center_axis',(0.,1.,0.));
#266=DIRECTION('ref_axis',(-1.,0.,0.));
#267=DIRECTION('center_axis',(0.,1.,0.));
#268=DIRECTION('ref_axis',(-1.,0.,0.));
#269=DIRECTION('',(-0.707106781186547,-0.707106781186547,8.65956056235493E-17));
#270=DIRECTION('center_axis',(0.,-1.,0.));
#271=DIRECTION('ref_axis',(-1.,0.,0.));
#272=DIRECTION('center_axis',(0.,-1.,0.));
#273=DIRECTION('ref_axis',(-1.,0.,0.));
#274=DIRECTION('',(0.,-1.,0.));
#275=DIRECTION('center_axis',(0.,1.,0.));
#276=DIRECTION('ref_axis',(-1.,0.,0.));
#277=DIRECTION('center_axis',(0.,1.,0.));
#278=DIRECTION('ref_axis',(0.,0.,1.));
#279=DIRECTION('',(1.,0.,0.));
#280=DIRECTION('',(0.,0.,1.));
#281=DIRECTION('',(1.,0.,0.));
#282=DIRECTION('',(0.,0.,-1.));
#283=DIRECTION('center_axis',(-1.,0.,0.));
#284=DIRECTION('ref_axis',(0.,0.,1.));
#285=DIRECTION('',(0.,0.,1.));
#286=DIRECTION('',(0.,1.,0.));
#287=DIRECTION('',(0.,0.,-1.));
#288=DIRECTION('',(0.,-1.,0.));
#289=DIRECTION('',(0.,1.,0.));
#290=DIRECTION('',(0.,0.,-1.));
#291=DIRECTION('',(0.,-1.,0.));
#292=DIRECTION('center_axis',(0.,0.,1.));
#293=DIRECTION('ref_axis',(0.,-1.,0.));
#294=DIRECTION('',(-1.,0.,0.));
#295=DIRECTION('',(0.,-1.,0.));
#296=DIRECTION('',(1.,0.,0.));
#297=DIRECTION('center_axis',(0.,1.,0.));
#298=DIRECTION('ref_axis',(0.,0.,1.));
#299=DIRECTION('',(0.,0.,1.));
#300=DIRECTION('',(1.,0.,0.));
#301=DIRECTION('center_axis',(0.,0.,-1.));
#302=DIRECTION('ref_axis',(0.,1.,0.));
#303=DIRECTION('',(0.,1.,0.));
#304=DIRECTION('center_axis',(0.,0.,1.));
#305=DIRECTION('ref_axis',(0.,-1.,0.));
#306=DIRECTION('',(0.,-1.,0.));
#307=DIRECTION('',(1.,0.,0.));
#308=DIRECTION('center_axis',(0.,1.,0.));
#309=DIRECTION('ref_axis',(0.,0.,1.));
#310=DIRECTION('',(0.,0.,1.));
#311=DIRECTION('',(1.,0.,0.));
#312=DIRECTION('center_axis',(0.,0.,-1.));
#313=DIRECTION('ref_axis',(0.,1.,0.));
#314=DIRECTION('',(0.,1.,0.));
#315=DIRECTION('',(1.,0.,0.));
#316=DIRECTION('center_axis',(0.,-1.,0.));
#317=DIRECTION('ref_axis',(0.,0.,-1.));
#318=DIRECTION('',(0.,0.,-1.));
#319=DIRECTION('center_axis',(1.,0.,0.));
#320=DIRECTION('ref_axis',(0.,0.,-1.));
#321=CARTESIAN_POINT('',(0.,0.,0.));
#322=CARTESIAN_POINT('Origin',(0.,1.5,0.));
#323=CARTESIAN_POINT('',(4.15,2.4,-5.08228421646152E-16));
#324=CARTESIAN_POINT('Origin',(0.,2.4,0.));
#325=CARTESIAN_POINT('',(2.35,0.6,2.87791997799628E-16));
#326=CARTESIAN_POINT('',(3.25,1.5,-3.9801020972289E-16));
#327=CARTESIAN_POINT('Origin',(0.,0.6,0.));
#328=CARTESIAN_POINT('Origin',(0.,2.4,0.));
#329=CARTESIAN_POINT('',(2.35,0.,-2.87791997799628E-16));
#330=CARTESIAN_POINT('',(2.35,2.4,2.87791997799628E-16));
#331=CARTESIAN_POINT('Origin',(0.,0.,0.));
#332=CARTESIAN_POINT('Origin',(0.,2.4,-4.25));
#333=CARTESIAN_POINT('',(-25.,2.4,4.25));
#334=CARTESIAN_POINT('',(25.,2.4,4.25));
#335=CARTESIAN_POINT('',(0.,2.4,4.25));
#336=CARTESIAN_POINT('',(25.,2.4,-4.25));
#337=CARTESIAN_POINT('',(25.,2.4,-4.25));
#338=CARTESIAN_POINT('',(-25.,2.4,-4.25));
#339=CARTESIAN_POINT('',(0.,2.4,-4.25));
#340=CARTESIAN_POINT('',(-25.,2.4,-4.25));
#341=CARTESIAN_POINT('Origin',(-25.,5.12857142857143,0.));
#342=CARTESIAN_POINT('',(-25.,0.,-6.));
#343=CARTESIAN_POINT('',(-25.,0.,6.));
#344=CARTESIAN_POINT('',(-25.,0.,6.));
#345=CARTESIAN_POINT('',(-25.,12.,6.));
#346=CARTESIAN_POINT('',(-25.,12.,6.));
#347=CARTESIAN_POINT('',(-25.,12.,4.25));
#348=CARTESIAN_POINT('',(-25.,12.,4.25));
#349=CARTESIAN_POINT('',(-25.,2.4,4.25));
#350=CARTESIAN_POINT('',(-25.,12.,-4.25));
#351=CARTESIAN_POINT('',(-25.,12.,-4.25));
#352=CARTESIAN_POINT('',(-25.,12.,-6.));
#353=CARTESIAN_POINT('',(-25.,12.,-6.));
#354=CARTESIAN_POINT('',(-25.,0.,-6.));
#355=CARTESIAN_POINT('Origin',(0.,12.,6.));
#356=CARTESIAN_POINT('',(25.,0.,6.));
#357=CARTESIAN_POINT('',(0.,0.,6.));
#358=CARTESIAN_POINT('',(25.,12.,6.));
#359=CARTESIAN_POINT('',(25.,12.,6.));
#360=CARTESIAN_POINT('',(0.,12.,6.));
#361=CARTESIAN_POINT('Origin',(0.,12.,4.25));
#362=CARTESIAN_POINT('',(25.,12.,4.25));
#363=CARTESIAN_POINT('',(25.,12.,4.25));
#364=CARTESIAN_POINT('',(0.,12.,4.25));
#365=CARTESIAN_POINT('Origin',(0.,2.4,4.25));
#366=CARTESIAN_POINT('',(25.,2.4,4.25));
#367=CARTESIAN_POINT('Origin',(0.,12.,-4.25));
#368=CARTESIAN_POINT('',(25.,12.,-4.25));
#369=CARTESIAN_POINT('',(25.,12.,-4.25));
#370=CARTESIAN_POINT('',(0.,12.,-4.25));
#371=CARTESIAN_POINT('Origin',(0.,12.,-6.));
#372=CARTESIAN_POINT('',(25.,12.,-6.));
#373=CARTESIAN_POINT('',(25.,12.,-6.));
#374=CARTESIAN_POINT('',(0.,12.,-6.));
#375=CARTESIAN_POINT('Origin',(0.,0.,-6.));
#376=CARTESIAN_POINT('',(25.,0.,-6.));
#377=CARTESIAN_POINT('',(25.,0.,-6.));
#378=CARTESIAN_POINT('',(0.,0.,-6.));
#379=CARTESIAN_POINT('Origin',(0.,0.,6.));
#380=CARTESIAN_POINT('',(25.,0.,6.));
#381=CARTESIAN_POINT('Origin',(25.,5.12857142857143,0.));
#382=UNCERTAINTY_MEASURE_WITH_UNIT(LENGTH_MEASURE(0.01),#386,
'DISTANCE_ACCURACY_VALUE',
'Maximum model space distance between geometric entities at asserted c
onnectivities');
#383=UNCERTAINTY_MEASURE_WITH_UNIT(LENGTH_MEASURE(0.01),#386,
'DISTANCE_ACCURACY_VALUE',
'Maximum model space distance between geometric entities at asserted c
onnectivities');
#384=(
GEOMETRIC_REPRESENTATION_CONTEXT(3)
GLOBAL_UNCERTAINTY_ASSIGNED_CONTEXT((#382))
GLOBAL_UNIT_ASSIGNED_CONTEXT((#386,#389,#388))
REPRESENTATION_CONTEXT('','3D')
);
#385=(
GEOMETRIC_REPRESENTATION_CONTEXT(3)
GLOBAL_UNCERTAINTY_ASSIGNED_CONTEXT((#383))
GLOBAL_UNIT_ASSIGNED_CONTEXT((#386,#389,#388))
REPRESENTATION_CONTEXT('','3D')
);
#386=(
LENGTH_UNIT()
NAMED_UNIT(*)
SI_UNIT(.MILLI.,.METRE.)
);
#387=(
LENGTH_UNIT()
NAMED_UNIT(*)
SI_UNIT(.CENTI.,.METRE.)
);
#388=(
NAMED_UNIT(*)
SI_UNIT($,.STERADIAN.)
SOLID_ANGLE_UNIT()
);
#389=(
NAMED_UNIT(*)
PLANE_ANGLE_UNIT()
SI_UNIT($,.RADIAN.)
);
#390=SHAPE_DEFINITION_REPRESENTATION(#391,#392);
#391=PRODUCT_DEFINITION_SHAPE('',$,#394);
#392=SHAPE_REPRESENTATION('',(#247),#384);
#393=PRODUCT_DEFINITION_CONTEXT('part definition',#398,'design');
#394=PRODUCT_DEFINITION('\X2\04210443044504300440044C\X0\ \X2\04340432043504400438\X0\',
'\X2\04210443044504300440044C\X0\ \X2\04340432043504400438\X0\',#395,#393);
#395=PRODUCT_DEFINITION_FORMATION('',$,#400);
#396=PRODUCT_RELATED_PRODUCT_CATEGORY('\X2\04210443044504300440044C\X0\ 
\X2\04340432043504400438\X0\','\X2\04210443044504300440044C\X0\ \X2\04340432043504400438\X0\',
(#400));
#397=APPLICATION_PROTOCOL_DEFINITION('international standard',
'automotive_design',2009,#398);
#398=APPLICATION_CONTEXT(
'Core Data for Automotive Mechanical Design Process');
#399=PRODUCT_CONTEXT('part definition',#398,'mechanical');
#400=PRODUCT('\X2\04210443044504300440044C\X0\ \X2\04340432043504400438\X0\',
'\X2\04210443044504300440044C\X0\ \X2\04340432043504400438\X0\',$,(#399));
#401=PRESENTATION_STYLE_ASSIGNMENT((#402));
#402=SURFACE_STYLE_USAGE(.BOTH.,#403);
#403=SURFACE_SIDE_STYLE('',(#404));
#404=SURFACE_STYLE_FILL_AREA(#405);
#405=FILL_AREA_STYLE('',(#406));
#406=FILL_AREA_STYLE_COLOUR('',#407);
#407=COLOUR_RGB('',1.,0.890196078431372,0.709803921568627);
ENDSEC;
END-ISO-10303-21;
