ISO-10303-21;
HEADER;
/* Generated by software containing ST-Developer
 * from STEP Tools, Inc. (www.steptools.com) 
 */

FILE_DESCRIPTION(
/* description */ (''),
/* implementation_level */ '2;1');

FILE_NAME(
/* name */ 
'D:\\Programm\\YandexDisk\\YandexDisk\\\X2\041704300433044004430437043A0438\X0\\\
\X2\041F0440043E0435043A0442044B\X0\\\Siemens\\\X2\04120441044204300432043A0430\X0\ 
\X2\0445043E043B043E0434\X0\ \X2\044004430447043A0438\X0\ 2.stp',
/* time_stamp */ '2020-03-04T19:56:04+03:00',
/* author */ ('Alexey'),
/* organization */ (''),
/* preprocessor_version */ 'ST-DEVELOPER v18',
/* originating_system */ 'Autodesk Inventor 2020',
/* authorisation */ '');

FILE_SCHEMA (('AUTOMOTIVE_DESIGN { 1 0 10303 214 3 1 1 }'));
ENDSEC;

DATA;
#10=MECHANICAL_DESIGN_GEOMETRIC_PRESENTATION_REPRESENTATION('',(#773,#774,
#775,#776,#777,#778,#779,#780,#781,#782,#783,#784,#785,#786,#787,#788,#789,
#790,#791,#792,#793,#794,#795,#796,#797,#798,#799,#800,#801,#802,#803,#804,
#805,#806,#807,#808,#809,#810,#811,#812,#813),#1404);
#11=SHAPE_REPRESENTATION_RELATIONSHIP('SRR','None',#1411,#12);
#12=ADVANCED_BREP_SHAPE_REPRESENTATION('',(#13),#1403);
#13=MANIFOLD_SOLID_BREP('\X2\04220432043504400434043E0435\X0\ \X2\04420435043B043E\X0\1',
#857);
#14=FACE_BOUND('',#123,.T.);
#15=FACE_BOUND('',#126,.T.);
#16=FACE_BOUND('',#127,.T.);
#17=FACE_BOUND('',#128,.T.);
#18=ELLIPSE('',#923,2.82842712474619,2.);
#19=ELLIPSE('',#925,2.82842712474619,2.);
#20=PLANE('',#880);
#21=PLANE('',#882);
#22=PLANE('',#886);
#23=PLANE('',#888);
#24=PLANE('',#892);
#25=PLANE('',#894);
#26=PLANE('',#897);
#27=PLANE('',#898);
#28=PLANE('',#901);
#29=PLANE('',#902);
#30=PLANE('',#906);
#31=PLANE('',#907);
#32=PLANE('',#909);
#33=PLANE('',#918);
#34=PLANE('',#919);
#35=PLANE('',#920);
#36=PLANE('',#928);
#37=PLANE('',#929);
#38=PLANE('',#930);
#39=PLANE('',#931);
#40=PLANE('',#932);
#41=PLANE('',#933);
#42=PLANE('',#934);
#43=PLANE('',#935);
#44=PLANE('',#936);
#45=PLANE('',#937);
#46=PLANE('',#938);
#47=PLANE('',#939);
#48=PLANE('',#940);
#49=PLANE('',#941);
#50=PLANE('',#942);
#51=FACE_OUTER_BOUND('',#94,.T.);
#52=FACE_OUTER_BOUND('',#95,.T.);
#53=FACE_OUTER_BOUND('',#96,.T.);
#54=FACE_OUTER_BOUND('',#97,.T.);
#55=FACE_OUTER_BOUND('',#98,.T.);
#56=FACE_OUTER_BOUND('',#99,.T.);
#57=FACE_OUTER_BOUND('',#100,.T.);
#58=FACE_OUTER_BOUND('',#101,.T.);
#59=FACE_OUTER_BOUND('',#102,.T.);
#60=FACE_OUTER_BOUND('',#103,.T.);
#61=FACE_OUTER_BOUND('',#104,.T.);
#62=FACE_OUTER_BOUND('',#105,.T.);
#63=FACE_OUTER_BOUND('',#106,.T.);
#64=FACE_OUTER_BOUND('',#107,.T.);
#65=FACE_OUTER_BOUND('',#108,.T.);
#66=FACE_OUTER_BOUND('',#109,.T.);
#67=FACE_OUTER_BOUND('',#110,.T.);
#68=FACE_OUTER_BOUND('',#111,.T.);
#69=FACE_OUTER_BOUND('',#112,.T.);
#70=FACE_OUTER_BOUND('',#113,.T.);
#71=FACE_OUTER_BOUND('',#114,.T.);
#72=FACE_OUTER_BOUND('',#115,.T.);
#73=FACE_OUTER_BOUND('',#116,.T.);
#74=FACE_OUTER_BOUND('',#117,.T.);
#75=FACE_OUTER_BOUND('',#118,.T.);
#76=FACE_OUTER_BOUND('',#119,.T.);
#77=FACE_OUTER_BOUND('',#120,.T.);
#78=FACE_OUTER_BOUND('',#121,.T.);
#79=FACE_OUTER_BOUND('',#122,.T.);
#80=FACE_OUTER_BOUND('',#124,.T.);
#81=FACE_OUTER_BOUND('',#125,.T.);
#82=FACE_OUTER_BOUND('',#129,.T.);
#83=FACE_OUTER_BOUND('',#130,.T.);
#84=FACE_OUTER_BOUND('',#131,.T.);
#85=FACE_OUTER_BOUND('',#132,.T.);
#86=FACE_OUTER_BOUND('',#133,.T.);
#87=FACE_OUTER_BOUND('',#134,.T.);
#88=FACE_OUTER_BOUND('',#135,.T.);
#89=FACE_OUTER_BOUND('',#136,.T.);
#90=FACE_OUTER_BOUND('',#137,.T.);
#91=FACE_OUTER_BOUND('',#138,.T.);
#92=FACE_OUTER_BOUND('',#139,.T.);
#93=FACE_OUTER_BOUND('',#140,.T.);
#94=EDGE_LOOP('',(#533,#534,#535,#536));
#95=EDGE_LOOP('',(#537,#538,#539,#540,#541,#542,#543));
#96=EDGE_LOOP('',(#544,#545,#546,#547,#548));
#97=EDGE_LOOP('',(#549,#550,#551,#552));
#98=EDGE_LOOP('',(#553,#554,#555,#556,#557,#558));
#99=EDGE_LOOP('',(#559,#560,#561,#562));
#100=EDGE_LOOP('',(#563,#564,#565,#566));
#101=EDGE_LOOP('',(#567,#568,#569,#570,#571,#572));
#102=EDGE_LOOP('',(#573,#574,#575,#576));
#103=EDGE_LOOP('',(#577,#578,#579,#580));
#104=EDGE_LOOP('',(#581,#582,#583,#584,#585,#586));
#105=EDGE_LOOP('',(#587,#588,#589,#590));
#106=EDGE_LOOP('',(#591,#592,#593,#594));
#107=EDGE_LOOP('',(#595,#596,#597,#598,#599,#600));
#108=EDGE_LOOP('',(#601,#602,#603,#604));
#109=EDGE_LOOP('',(#605,#606,#607,#608));
#110=EDGE_LOOP('',(#609,#610,#611,#612,#613));
#111=EDGE_LOOP('',(#614,#615,#616,#617,#618,#619,#620));
#112=EDGE_LOOP('',(#621,#622,#623,#624));
#113=EDGE_LOOP('',(#625,#626,#627,#628));
#114=EDGE_LOOP('',(#629,#630,#631,#632));
#115=EDGE_LOOP('',(#633,#634,#635,#636,#637));
#116=EDGE_LOOP('',(#638,#639,#640,#641,#642));
#117=EDGE_LOOP('',(#643,#644,#645,#646,#647,#648));
#118=EDGE_LOOP('',(#649,#650,#651,#652));
#119=EDGE_LOOP('',(#653,#654,#655,#656));
#120=EDGE_LOOP('',(#657,#658,#659,#660));
#121=EDGE_LOOP('',(#661,#662,#663,#664));
#122=EDGE_LOOP('',(#665,#666,#667,#668));
#123=EDGE_LOOP('',(#669,#670));
#124=EDGE_LOOP('',(#671,#672,#673,#674,#675,#676,#677,#678,#679,#680));
#125=EDGE_LOOP('',(#681,#682,#683,#684,#685,#686,#687,#688,#689,#690,#691,
#692,#693,#694,#695,#696,#697,#698));
#126=EDGE_LOOP('',(#699));
#127=EDGE_LOOP('',(#700,#701,#702,#703));
#128=EDGE_LOOP('',(#704,#705,#706,#707));
#129=EDGE_LOOP('',(#708,#709,#710,#711));
#130=EDGE_LOOP('',(#712,#713,#714,#715));
#131=EDGE_LOOP('',(#716,#717,#718,#719));
#132=EDGE_LOOP('',(#720,#721,#722,#723,#724,#725));
#133=EDGE_LOOP('',(#726,#727,#728,#729,#730,#731));
#134=EDGE_LOOP('',(#732,#733,#734,#735,#736));
#135=EDGE_LOOP('',(#737,#738,#739,#740));
#136=EDGE_LOOP('',(#741,#742,#743,#744));
#137=EDGE_LOOP('',(#745,#746,#747,#748));
#138=EDGE_LOOP('',(#749,#750,#751,#752));
#139=EDGE_LOOP('',(#753,#754,#755,#756));
#140=EDGE_LOOP('',(#757,#758,#759,#760));
#141=LINE('',#1174,#232);
#142=LINE('',#1177,#233);
#143=LINE('',#1180,#234);
#144=LINE('',#1184,#235);
#145=LINE('',#1186,#236);
#146=LINE('',#1188,#237);
#147=LINE('',#1189,#238);
#148=LINE('',#1192,#239);
#149=LINE('',#1194,#240);
#150=LINE('',#1195,#241);
#151=LINE('',#1201,#242);
#152=LINE('',#1204,#243);
#153=LINE('',#1207,#244);
#154=LINE('',#1209,#245);
#155=LINE('',#1211,#246);
#156=LINE('',#1214,#247);
#157=LINE('',#1217,#248);
#158=LINE('',#1218,#249);
#159=LINE('',#1224,#250);
#160=LINE('',#1227,#251);
#161=LINE('',#1230,#252);
#162=LINE('',#1232,#253);
#163=LINE('',#1234,#254);
#164=LINE('',#1237,#255);
#165=LINE('',#1240,#256);
#166=LINE('',#1241,#257);
#167=LINE('',#1246,#258);
#168=LINE('',#1247,#259);
#169=LINE('',#1249,#260);
#170=LINE('',#1251,#261);
#171=LINE('',#1252,#262);
#172=LINE('',#1254,#263);
#173=LINE('',#1259,#264);
#174=LINE('',#1260,#265);
#175=LINE('',#1262,#266);
#176=LINE('',#1264,#267);
#177=LINE('',#1265,#268);
#178=LINE('',#1267,#269);
#179=LINE('',#1273,#270);
#180=LINE('',#1276,#271);
#181=LINE('',#1279,#272);
#182=LINE('',#1281,#273);
#183=LINE('',#1283,#274);
#184=LINE('',#1284,#275);
#185=LINE('',#1287,#276);
#186=LINE('',#1289,#277);
#187=LINE('',#1291,#278);
#188=LINE('',#1293,#279);
#189=LINE('',#1297,#280);
#190=LINE('',#1298,#281);
#191=LINE('',#1302,#282);
#192=LINE('',#1305,#283);
#193=LINE('',#1313,#284);
#194=LINE('',#1317,#285);
#195=LINE('',#1319,#286);
#196=LINE('',#1320,#287);
#197=LINE('',#1323,#288);
#198=LINE('',#1325,#289);
#199=LINE('',#1326,#290);
#200=LINE('',#1327,#291);
#201=LINE('',#1330,#292);
#202=LINE('',#1332,#293);
#203=LINE('',#1333,#294);
#204=LINE('',#1337,#295);
#205=LINE('',#1341,#296);
#206=LINE('',#1345,#297);
#207=LINE('',#1348,#298);
#208=LINE('',#1351,#299);
#209=LINE('',#1354,#300);
#210=LINE('',#1356,#301);
#211=LINE('',#1359,#302);
#212=LINE('',#1361,#303);
#213=LINE('',#1362,#304);
#214=LINE('',#1364,#305);
#215=LINE('',#1366,#306);
#216=LINE('',#1367,#307);
#217=LINE('',#1369,#308);
#218=LINE('',#1371,#309);
#219=LINE('',#1373,#310);
#220=LINE('',#1374,#311);
#221=LINE('',#1375,#312);
#222=LINE('',#1376,#313);
#223=LINE('',#1378,#314);
#224=LINE('',#1380,#315);
#225=LINE('',#1382,#316);
#226=LINE('',#1383,#317);
#227=LINE('',#1385,#318);
#228=LINE('',#1386,#319);
#229=LINE('',#1392,#320);
#230=LINE('',#1395,#321);
#231=LINE('',#1397,#322);
#232=VECTOR('',#949,10.);
#233=VECTOR('',#952,10.);
#234=VECTOR('',#955,10.);
#235=VECTOR('',#958,10.);
#236=VECTOR('',#959,10.);
#237=VECTOR('',#960,10.);
#238=VECTOR('',#961,10.);
#239=VECTOR('',#964,10.);
#240=VECTOR('',#965,10.);
#241=VECTOR('',#966,10.);
#242=VECTOR('',#971,10.);
#243=VECTOR('',#974,10.);
#244=VECTOR('',#977,10.);
#245=VECTOR('',#978,10.);
#246=VECTOR('',#979,10.);
#247=VECTOR('',#982,10.);
#248=VECTOR('',#985,10.);
#249=VECTOR('',#986,10.);
#250=VECTOR('',#991,10.);
#251=VECTOR('',#994,10.);
#252=VECTOR('',#997,10.);
#253=VECTOR('',#998,10.);
#254=VECTOR('',#999,10.);
#255=VECTOR('',#1002,10.);
#256=VECTOR('',#1005,10.);
#257=VECTOR('',#1006,10.);
#258=VECTOR('',#1011,10.);
#259=VECTOR('',#1012,10.);
#260=VECTOR('',#1015,10.);
#261=VECTOR('',#1016,10.);
#262=VECTOR('',#1017,10.);
#263=VECTOR('',#1020,10.);
#264=VECTOR('',#1025,10.);
#265=VECTOR('',#1026,10.);
#266=VECTOR('',#1029,10.);
#267=VECTOR('',#1030,10.);
#268=VECTOR('',#1031,10.);
#269=VECTOR('',#1034,10.);
#270=VECTOR('',#1039,10.);
#271=VECTOR('',#1042,10.);
#272=VECTOR('',#1045,10.);
#273=VECTOR('',#1046,10.);
#274=VECTOR('',#1047,10.);
#275=VECTOR('',#1048,10.);
#276=VECTOR('',#1051,10.);
#277=VECTOR('',#1052,10.);
#278=VECTOR('',#1053,10.);
#279=VECTOR('',#1054,10.);
#280=VECTOR('',#1059,10.);
#281=VECTOR('',#1060,10.);
#282=VECTOR('',#1065,10.);
#283=VECTOR('',#1068,10.);
#284=VECTOR('',#1077,1.5);
#285=VECTOR('',#1082,10.);
#286=VECTOR('',#1083,10.);
#287=VECTOR('',#1084,10.);
#288=VECTOR('',#1087,10.);
#289=VECTOR('',#1088,10.);
#290=VECTOR('',#1089,10.);
#291=VECTOR('',#1090,10.);
#292=VECTOR('',#1093,10.);
#293=VECTOR('',#1094,10.);
#294=VECTOR('',#1095,10.);
#295=VECTOR('',#1098,10.);
#296=VECTOR('',#1101,10.);
#297=VECTOR('',#1106,10.);
#298=VECTOR('',#1109,10.);
#299=VECTOR('',#1112,10.);
#300=VECTOR('',#1115,10.);
#301=VECTOR('',#1118,10.);
#302=VECTOR('',#1121,10.);
#303=VECTOR('',#1122,10.);
#304=VECTOR('',#1123,10.);
#305=VECTOR('',#1124,10.);
#306=VECTOR('',#1125,10.);
#307=VECTOR('',#1126,10.);
#308=VECTOR('',#1129,10.);
#309=VECTOR('',#1130,10.);
#310=VECTOR('',#1131,10.);
#311=VECTOR('',#1132,10.);
#312=VECTOR('',#1133,10.);
#313=VECTOR('',#1134,10.);
#314=VECTOR('',#1135,10.);
#315=VECTOR('',#1136,10.);
#316=VECTOR('',#1137,10.);
#317=VECTOR('',#1138,10.);
#318=VECTOR('',#1141,10.);
#319=VECTOR('',#1142,10.);
#320=VECTOR('',#1153,10.);
#321=VECTOR('',#1158,10.);
#322=VECTOR('',#1161,10.);
#323=CIRCLE('',#878,2.);
#324=CIRCLE('',#879,2.);
#325=CIRCLE('',#881,2.);
#326=CIRCLE('',#884,2.);
#327=CIRCLE('',#885,2.);
#328=CIRCLE('',#887,2.);
#329=CIRCLE('',#890,2.);
#330=CIRCLE('',#891,2.);
#331=CIRCLE('',#893,2.);
#332=CIRCLE('',#896,2.);
#333=CIRCLE('',#900,2.);
#334=CIRCLE('',#904,2.);
#335=CIRCLE('',#905,2.);
#336=CIRCLE('',#908,2.);
#337=CIRCLE('',#911,2.);
#338=CIRCLE('',#913,2.);
#339=CIRCLE('',#915,1.5);
#340=CIRCLE('',#916,1.5);
#341=CIRCLE('',#917,1.5);
#342=CIRCLE('',#922,2.);
#343=CIRCLE('',#927,2.);
#344=VERTEX_POINT('',#1170);
#345=VERTEX_POINT('',#1171);
#346=VERTEX_POINT('',#1173);
#347=VERTEX_POINT('',#1175);
#348=VERTEX_POINT('',#1179);
#349=VERTEX_POINT('',#1181);
#350=VERTEX_POINT('',#1183);
#351=VERTEX_POINT('',#1185);
#352=VERTEX_POINT('',#1187);
#353=VERTEX_POINT('',#1191);
#354=VERTEX_POINT('',#1193);
#355=VERTEX_POINT('',#1197);
#356=VERTEX_POINT('',#1198);
#357=VERTEX_POINT('',#1200);
#358=VERTEX_POINT('',#1202);
#359=VERTEX_POINT('',#1206);
#360=VERTEX_POINT('',#1208);
#361=VERTEX_POINT('',#1210);
#362=VERTEX_POINT('',#1212);
#363=VERTEX_POINT('',#1216);
#364=VERTEX_POINT('',#1220);
#365=VERTEX_POINT('',#1221);
#366=VERTEX_POINT('',#1223);
#367=VERTEX_POINT('',#1225);
#368=VERTEX_POINT('',#1229);
#369=VERTEX_POINT('',#1231);
#370=VERTEX_POINT('',#1233);
#371=VERTEX_POINT('',#1235);
#372=VERTEX_POINT('',#1239);
#373=VERTEX_POINT('',#1243);
#374=VERTEX_POINT('',#1244);
#375=VERTEX_POINT('',#1250);
#376=VERTEX_POINT('',#1256);
#377=VERTEX_POINT('',#1257);
#378=VERTEX_POINT('',#1263);
#379=VERTEX_POINT('',#1269);
#380=VERTEX_POINT('',#1270);
#381=VERTEX_POINT('',#1272);
#382=VERTEX_POINT('',#1274);
#383=VERTEX_POINT('',#1278);
#384=VERTEX_POINT('',#1280);
#385=VERTEX_POINT('',#1282);
#386=VERTEX_POINT('',#1286);
#387=VERTEX_POINT('',#1288);
#388=VERTEX_POINT('',#1290);
#389=VERTEX_POINT('',#1292);
#390=VERTEX_POINT('',#1296);
#391=VERTEX_POINT('',#1300);
#392=VERTEX_POINT('',#1304);
#393=VERTEX_POINT('',#1308);
#394=VERTEX_POINT('',#1309);
#395=VERTEX_POINT('',#1312);
#396=VERTEX_POINT('',#1316);
#397=VERTEX_POINT('',#1318);
#398=VERTEX_POINT('',#1322);
#399=VERTEX_POINT('',#1324);
#400=VERTEX_POINT('',#1329);
#401=VERTEX_POINT('',#1331);
#402=VERTEX_POINT('',#1335);
#403=VERTEX_POINT('',#1336);
#404=VERTEX_POINT('',#1338);
#405=VERTEX_POINT('',#1340);
#406=VERTEX_POINT('',#1344);
#407=VERTEX_POINT('',#1346);
#408=VERTEX_POINT('',#1350);
#409=VERTEX_POINT('',#1352);
#410=VERTEX_POINT('',#1358);
#411=VERTEX_POINT('',#1360);
#412=VERTEX_POINT('',#1363);
#413=VERTEX_POINT('',#1365);
#414=VERTEX_POINT('',#1370);
#415=VERTEX_POINT('',#1372);
#416=VERTEX_POINT('',#1377);
#417=VERTEX_POINT('',#1379);
#418=VERTEX_POINT('',#1381);
#419=EDGE_CURVE('',#344,#345,#323,.T.);
#420=EDGE_CURVE('',#345,#346,#141,.T.);
#421=EDGE_CURVE('',#346,#347,#324,.T.);
#422=EDGE_CURVE('',#347,#344,#142,.T.);
#423=EDGE_CURVE('',#345,#348,#143,.T.);
#424=EDGE_CURVE('',#349,#348,#325,.T.);
#425=EDGE_CURVE('',#349,#350,#144,.T.);
#426=EDGE_CURVE('',#350,#351,#145,.T.);
#427=EDGE_CURVE('',#351,#352,#146,.T.);
#428=EDGE_CURVE('',#352,#346,#147,.T.);
#429=EDGE_CURVE('',#344,#353,#148,.T.);
#430=EDGE_CURVE('',#353,#354,#149,.T.);
#431=EDGE_CURVE('',#348,#354,#150,.T.);
#432=EDGE_CURVE('',#355,#356,#326,.T.);
#433=EDGE_CURVE('',#356,#357,#151,.T.);
#434=EDGE_CURVE('',#357,#358,#327,.T.);
#435=EDGE_CURVE('',#358,#355,#152,.T.);
#436=EDGE_CURVE('',#355,#359,#153,.T.);
#437=EDGE_CURVE('',#359,#360,#154,.T.);
#438=EDGE_CURVE('',#360,#361,#155,.T.);
#439=EDGE_CURVE('',#362,#361,#328,.T.);
#440=EDGE_CURVE('',#356,#362,#156,.T.);
#441=EDGE_CURVE('',#358,#363,#157,.T.);
#442=EDGE_CURVE('',#359,#363,#158,.T.);
#443=EDGE_CURVE('',#364,#365,#329,.T.);
#444=EDGE_CURVE('',#365,#366,#159,.T.);
#445=EDGE_CURVE('',#366,#367,#330,.T.);
#446=EDGE_CURVE('',#367,#364,#160,.T.);
#447=EDGE_CURVE('',#364,#368,#161,.T.);
#448=EDGE_CURVE('',#368,#369,#162,.T.);
#449=EDGE_CURVE('',#369,#370,#163,.T.);
#450=EDGE_CURVE('',#371,#370,#331,.T.);
#451=EDGE_CURVE('',#365,#371,#164,.T.);
#452=EDGE_CURVE('',#367,#372,#165,.T.);
#453=EDGE_CURVE('',#368,#372,#166,.T.);
#454=EDGE_CURVE('',#373,#374,#332,.T.);
#455=EDGE_CURVE('',#374,#362,#167,.T.);
#456=EDGE_CURVE('',#361,#373,#168,.T.);
#457=EDGE_CURVE('',#374,#357,#169,.T.);
#458=EDGE_CURVE('',#375,#373,#170,.T.);
#459=EDGE_CURVE('',#363,#375,#171,.T.);
#460=EDGE_CURVE('',#375,#360,#172,.T.);
#461=EDGE_CURVE('',#376,#377,#333,.T.);
#462=EDGE_CURVE('',#377,#371,#173,.T.);
#463=EDGE_CURVE('',#370,#376,#174,.T.);
#464=EDGE_CURVE('',#377,#366,#175,.T.);
#465=EDGE_CURVE('',#378,#376,#176,.T.);
#466=EDGE_CURVE('',#372,#378,#177,.T.);
#467=EDGE_CURVE('',#378,#369,#178,.T.);
#468=EDGE_CURVE('',#379,#380,#334,.T.);
#469=EDGE_CURVE('',#380,#381,#179,.T.);
#470=EDGE_CURVE('',#381,#382,#335,.T.);
#471=EDGE_CURVE('',#382,#379,#180,.T.);
#472=EDGE_CURVE('',#383,#381,#181,.T.);
#473=EDGE_CURVE('',#384,#383,#182,.T.);
#474=EDGE_CURVE('',#384,#385,#183,.T.);
#475=EDGE_CURVE('',#385,#382,#184,.T.);
#476=EDGE_CURVE('',#380,#386,#185,.T.);
#477=EDGE_CURVE('',#386,#387,#186,.T.);
#478=EDGE_CURVE('',#387,#388,#187,.T.);
#479=EDGE_CURVE('',#388,#389,#188,.T.);
#480=EDGE_CURVE('',#383,#389,#336,.T.);
#481=EDGE_CURVE('',#390,#385,#189,.T.);
#482=EDGE_CURVE('',#390,#379,#190,.T.);
#483=EDGE_CURVE('',#354,#391,#337,.F.);
#484=EDGE_CURVE('',#391,#349,#191,.T.);
#485=EDGE_CURVE('',#389,#392,#192,.T.);
#486=EDGE_CURVE('',#392,#384,#338,.F.);
#487=EDGE_CURVE('',#393,#394,#339,.T.);
#488=EDGE_CURVE('',#394,#393,#340,.T.);
#489=EDGE_CURVE('',#394,#395,#193,.T.);
#490=EDGE_CURVE('',#395,#395,#341,.T.);
#491=EDGE_CURVE('',#352,#396,#194,.T.);
#492=EDGE_CURVE('',#397,#396,#195,.T.);
#493=EDGE_CURVE('',#397,#347,#196,.T.);
#494=EDGE_CURVE('',#350,#398,#197,.T.);
#495=EDGE_CURVE('',#399,#398,#198,.T.);
#496=EDGE_CURVE('',#388,#399,#199,.T.);
#497=EDGE_CURVE('',#387,#351,#200,.T.);
#498=EDGE_CURVE('',#398,#400,#201,.T.);
#499=EDGE_CURVE('',#401,#400,#202,.T.);
#500=EDGE_CURVE('',#399,#401,#203,.T.);
#501=EDGE_CURVE('',#402,#403,#204,.T.);
#502=EDGE_CURVE('',#403,#404,#342,.T.);
#503=EDGE_CURVE('',#404,#405,#205,.T.);
#504=EDGE_CURVE('',#405,#402,#18,.T.);
#505=EDGE_CURVE('',#405,#406,#206,.T.);
#506=EDGE_CURVE('',#406,#407,#19,.T.);
#507=EDGE_CURVE('',#407,#402,#207,.T.);
#508=EDGE_CURVE('',#406,#408,#208,.T.);
#509=EDGE_CURVE('',#408,#409,#343,.T.);
#510=EDGE_CURVE('',#409,#407,#209,.T.);
#511=EDGE_CURVE('',#404,#408,#210,.T.);
#512=EDGE_CURVE('',#410,#403,#211,.T.);
#513=EDGE_CURVE('',#411,#410,#212,.T.);
#514=EDGE_CURVE('',#411,#401,#213,.T.);
#515=EDGE_CURVE('',#412,#400,#214,.T.);
#516=EDGE_CURVE('',#413,#412,#215,.T.);
#517=EDGE_CURVE('',#413,#409,#216,.T.);
#518=EDGE_CURVE('',#411,#392,#217,.T.);
#519=EDGE_CURVE('',#410,#414,#218,.T.);
#520=EDGE_CURVE('',#414,#415,#219,.T.);
#521=EDGE_CURVE('',#415,#413,#220,.T.);
#522=EDGE_CURVE('',#391,#412,#221,.T.);
#523=EDGE_CURVE('',#353,#397,#222,.T.);
#524=EDGE_CURVE('',#396,#416,#223,.T.);
#525=EDGE_CURVE('',#416,#417,#224,.T.);
#526=EDGE_CURVE('',#417,#418,#225,.T.);
#527=EDGE_CURVE('',#418,#390,#226,.T.);
#528=EDGE_CURVE('',#415,#407,#227,.T.);
#529=EDGE_CURVE('',#414,#402,#228,.T.);
#530=EDGE_CURVE('',#386,#418,#229,.T.);
#531=EDGE_CURVE('',#387,#417,#230,.T.);
#532=EDGE_CURVE('',#351,#416,#231,.T.);
#533=ORIENTED_EDGE('',*,*,#419,.T.);
#534=ORIENTED_EDGE('',*,*,#420,.T.);
#535=ORIENTED_EDGE('',*,*,#421,.T.);
#536=ORIENTED_EDGE('',*,*,#422,.T.);
#537=ORIENTED_EDGE('',*,*,#420,.F.);
#538=ORIENTED_EDGE('',*,*,#423,.T.);
#539=ORIENTED_EDGE('',*,*,#424,.F.);
#540=ORIENTED_EDGE('',*,*,#425,.T.);
#541=ORIENTED_EDGE('',*,*,#426,.T.);
#542=ORIENTED_EDGE('',*,*,#427,.T.);
#543=ORIENTED_EDGE('',*,*,#428,.T.);
#544=ORIENTED_EDGE('',*,*,#419,.F.);
#545=ORIENTED_EDGE('',*,*,#429,.T.);
#546=ORIENTED_EDGE('',*,*,#430,.T.);
#547=ORIENTED_EDGE('',*,*,#431,.F.);
#548=ORIENTED_EDGE('',*,*,#423,.F.);
#549=ORIENTED_EDGE('',*,*,#432,.T.);
#550=ORIENTED_EDGE('',*,*,#433,.T.);
#551=ORIENTED_EDGE('',*,*,#434,.T.);
#552=ORIENTED_EDGE('',*,*,#435,.T.);
#553=ORIENTED_EDGE('',*,*,#432,.F.);
#554=ORIENTED_EDGE('',*,*,#436,.T.);
#555=ORIENTED_EDGE('',*,*,#437,.T.);
#556=ORIENTED_EDGE('',*,*,#438,.T.);
#557=ORIENTED_EDGE('',*,*,#439,.F.);
#558=ORIENTED_EDGE('',*,*,#440,.F.);
#559=ORIENTED_EDGE('',*,*,#435,.F.);
#560=ORIENTED_EDGE('',*,*,#441,.T.);
#561=ORIENTED_EDGE('',*,*,#442,.F.);
#562=ORIENTED_EDGE('',*,*,#436,.F.);
#563=ORIENTED_EDGE('',*,*,#443,.T.);
#564=ORIENTED_EDGE('',*,*,#444,.T.);
#565=ORIENTED_EDGE('',*,*,#445,.T.);
#566=ORIENTED_EDGE('',*,*,#446,.T.);
#567=ORIENTED_EDGE('',*,*,#443,.F.);
#568=ORIENTED_EDGE('',*,*,#447,.T.);
#569=ORIENTED_EDGE('',*,*,#448,.T.);
#570=ORIENTED_EDGE('',*,*,#449,.T.);
#571=ORIENTED_EDGE('',*,*,#450,.F.);
#572=ORIENTED_EDGE('',*,*,#451,.F.);
#573=ORIENTED_EDGE('',*,*,#446,.F.);
#574=ORIENTED_EDGE('',*,*,#452,.T.);
#575=ORIENTED_EDGE('',*,*,#453,.F.);
#576=ORIENTED_EDGE('',*,*,#447,.F.);
#577=ORIENTED_EDGE('',*,*,#454,.T.);
#578=ORIENTED_EDGE('',*,*,#455,.T.);
#579=ORIENTED_EDGE('',*,*,#439,.T.);
#580=ORIENTED_EDGE('',*,*,#456,.T.);
#581=ORIENTED_EDGE('',*,*,#434,.F.);
#582=ORIENTED_EDGE('',*,*,#457,.F.);
#583=ORIENTED_EDGE('',*,*,#454,.F.);
#584=ORIENTED_EDGE('',*,*,#458,.F.);
#585=ORIENTED_EDGE('',*,*,#459,.F.);
#586=ORIENTED_EDGE('',*,*,#441,.F.);
#587=ORIENTED_EDGE('',*,*,#456,.F.);
#588=ORIENTED_EDGE('',*,*,#438,.F.);
#589=ORIENTED_EDGE('',*,*,#460,.F.);
#590=ORIENTED_EDGE('',*,*,#458,.T.);
#591=ORIENTED_EDGE('',*,*,#461,.T.);
#592=ORIENTED_EDGE('',*,*,#462,.T.);
#593=ORIENTED_EDGE('',*,*,#450,.T.);
#594=ORIENTED_EDGE('',*,*,#463,.T.);
#595=ORIENTED_EDGE('',*,*,#445,.F.);
#596=ORIENTED_EDGE('',*,*,#464,.F.);
#597=ORIENTED_EDGE('',*,*,#461,.F.);
#598=ORIENTED_EDGE('',*,*,#465,.F.);
#599=ORIENTED_EDGE('',*,*,#466,.F.);
#600=ORIENTED_EDGE('',*,*,#452,.F.);
#601=ORIENTED_EDGE('',*,*,#463,.F.);
#602=ORIENTED_EDGE('',*,*,#449,.F.);
#603=ORIENTED_EDGE('',*,*,#467,.F.);
#604=ORIENTED_EDGE('',*,*,#465,.T.);
#605=ORIENTED_EDGE('',*,*,#468,.T.);
#606=ORIENTED_EDGE('',*,*,#469,.T.);
#607=ORIENTED_EDGE('',*,*,#470,.T.);
#608=ORIENTED_EDGE('',*,*,#471,.T.);
#609=ORIENTED_EDGE('',*,*,#470,.F.);
#610=ORIENTED_EDGE('',*,*,#472,.F.);
#611=ORIENTED_EDGE('',*,*,#473,.F.);
#612=ORIENTED_EDGE('',*,*,#474,.T.);
#613=ORIENTED_EDGE('',*,*,#475,.T.);
#614=ORIENTED_EDGE('',*,*,#469,.F.);
#615=ORIENTED_EDGE('',*,*,#476,.T.);
#616=ORIENTED_EDGE('',*,*,#477,.T.);
#617=ORIENTED_EDGE('',*,*,#478,.T.);
#618=ORIENTED_EDGE('',*,*,#479,.T.);
#619=ORIENTED_EDGE('',*,*,#480,.F.);
#620=ORIENTED_EDGE('',*,*,#472,.T.);
#621=ORIENTED_EDGE('',*,*,#471,.F.);
#622=ORIENTED_EDGE('',*,*,#475,.F.);
#623=ORIENTED_EDGE('',*,*,#481,.F.);
#624=ORIENTED_EDGE('',*,*,#482,.T.);
#625=ORIENTED_EDGE('',*,*,#424,.T.);
#626=ORIENTED_EDGE('',*,*,#431,.T.);
#627=ORIENTED_EDGE('',*,*,#483,.T.);
#628=ORIENTED_EDGE('',*,*,#484,.T.);
#629=ORIENTED_EDGE('',*,*,#480,.T.);
#630=ORIENTED_EDGE('',*,*,#485,.T.);
#631=ORIENTED_EDGE('',*,*,#486,.T.);
#632=ORIENTED_EDGE('',*,*,#473,.T.);
#633=ORIENTED_EDGE('',*,*,#487,.F.);
#634=ORIENTED_EDGE('',*,*,#488,.F.);
#635=ORIENTED_EDGE('',*,*,#489,.T.);
#636=ORIENTED_EDGE('',*,*,#490,.F.);
#637=ORIENTED_EDGE('',*,*,#489,.F.);
#638=ORIENTED_EDGE('',*,*,#421,.F.);
#639=ORIENTED_EDGE('',*,*,#428,.F.);
#640=ORIENTED_EDGE('',*,*,#491,.T.);
#641=ORIENTED_EDGE('',*,*,#492,.F.);
#642=ORIENTED_EDGE('',*,*,#493,.T.);
#643=ORIENTED_EDGE('',*,*,#494,.T.);
#644=ORIENTED_EDGE('',*,*,#495,.F.);
#645=ORIENTED_EDGE('',*,*,#496,.F.);
#646=ORIENTED_EDGE('',*,*,#478,.F.);
#647=ORIENTED_EDGE('',*,*,#497,.T.);
#648=ORIENTED_EDGE('',*,*,#426,.F.);
#649=ORIENTED_EDGE('',*,*,#498,.T.);
#650=ORIENTED_EDGE('',*,*,#499,.F.);
#651=ORIENTED_EDGE('',*,*,#500,.F.);
#652=ORIENTED_EDGE('',*,*,#495,.T.);
#653=ORIENTED_EDGE('',*,*,#501,.T.);
#654=ORIENTED_EDGE('',*,*,#502,.T.);
#655=ORIENTED_EDGE('',*,*,#503,.T.);
#656=ORIENTED_EDGE('',*,*,#504,.T.);
#657=ORIENTED_EDGE('',*,*,#505,.T.);
#658=ORIENTED_EDGE('',*,*,#506,.T.);
#659=ORIENTED_EDGE('',*,*,#507,.T.);
#660=ORIENTED_EDGE('',*,*,#504,.F.);
#661=ORIENTED_EDGE('',*,*,#508,.T.);
#662=ORIENTED_EDGE('',*,*,#509,.T.);
#663=ORIENTED_EDGE('',*,*,#510,.T.);
#664=ORIENTED_EDGE('',*,*,#506,.F.);
#665=ORIENTED_EDGE('',*,*,#508,.F.);
#666=ORIENTED_EDGE('',*,*,#505,.F.);
#667=ORIENTED_EDGE('',*,*,#503,.F.);
#668=ORIENTED_EDGE('',*,*,#511,.T.);
#669=ORIENTED_EDGE('',*,*,#487,.T.);
#670=ORIENTED_EDGE('',*,*,#488,.T.);
#671=ORIENTED_EDGE('',*,*,#509,.F.);
#672=ORIENTED_EDGE('',*,*,#511,.F.);
#673=ORIENTED_EDGE('',*,*,#502,.F.);
#674=ORIENTED_EDGE('',*,*,#512,.F.);
#675=ORIENTED_EDGE('',*,*,#513,.F.);
#676=ORIENTED_EDGE('',*,*,#514,.T.);
#677=ORIENTED_EDGE('',*,*,#499,.T.);
#678=ORIENTED_EDGE('',*,*,#515,.F.);
#679=ORIENTED_EDGE('',*,*,#516,.F.);
#680=ORIENTED_EDGE('',*,*,#517,.T.);
#681=ORIENTED_EDGE('',*,*,#518,.F.);
#682=ORIENTED_EDGE('',*,*,#513,.T.);
#683=ORIENTED_EDGE('',*,*,#519,.T.);
#684=ORIENTED_EDGE('',*,*,#520,.T.);
#685=ORIENTED_EDGE('',*,*,#521,.T.);
#686=ORIENTED_EDGE('',*,*,#516,.T.);
#687=ORIENTED_EDGE('',*,*,#522,.F.);
#688=ORIENTED_EDGE('',*,*,#483,.F.);
#689=ORIENTED_EDGE('',*,*,#430,.F.);
#690=ORIENTED_EDGE('',*,*,#523,.T.);
#691=ORIENTED_EDGE('',*,*,#492,.T.);
#692=ORIENTED_EDGE('',*,*,#524,.T.);
#693=ORIENTED_EDGE('',*,*,#525,.T.);
#694=ORIENTED_EDGE('',*,*,#526,.T.);
#695=ORIENTED_EDGE('',*,*,#527,.T.);
#696=ORIENTED_EDGE('',*,*,#481,.T.);
#697=ORIENTED_EDGE('',*,*,#474,.F.);
#698=ORIENTED_EDGE('',*,*,#486,.F.);
#699=ORIENTED_EDGE('',*,*,#490,.T.);
#700=ORIENTED_EDGE('',*,*,#453,.T.);
#701=ORIENTED_EDGE('',*,*,#466,.T.);
#702=ORIENTED_EDGE('',*,*,#467,.T.);
#703=ORIENTED_EDGE('',*,*,#448,.F.);
#704=ORIENTED_EDGE('',*,*,#459,.T.);
#705=ORIENTED_EDGE('',*,*,#460,.T.);
#706=ORIENTED_EDGE('',*,*,#437,.F.);
#707=ORIENTED_EDGE('',*,*,#442,.T.);
#708=ORIENTED_EDGE('',*,*,#507,.F.);
#709=ORIENTED_EDGE('',*,*,#528,.F.);
#710=ORIENTED_EDGE('',*,*,#520,.F.);
#711=ORIENTED_EDGE('',*,*,#529,.T.);
#712=ORIENTED_EDGE('',*,*,#510,.F.);
#713=ORIENTED_EDGE('',*,*,#517,.F.);
#714=ORIENTED_EDGE('',*,*,#521,.F.);
#715=ORIENTED_EDGE('',*,*,#528,.T.);
#716=ORIENTED_EDGE('',*,*,#501,.F.);
#717=ORIENTED_EDGE('',*,*,#529,.F.);
#718=ORIENTED_EDGE('',*,*,#519,.F.);
#719=ORIENTED_EDGE('',*,*,#512,.T.);
#720=ORIENTED_EDGE('',*,*,#485,.F.);
#721=ORIENTED_EDGE('',*,*,#479,.F.);
#722=ORIENTED_EDGE('',*,*,#496,.T.);
#723=ORIENTED_EDGE('',*,*,#500,.T.);
#724=ORIENTED_EDGE('',*,*,#514,.F.);
#725=ORIENTED_EDGE('',*,*,#518,.T.);
#726=ORIENTED_EDGE('',*,*,#484,.F.);
#727=ORIENTED_EDGE('',*,*,#522,.T.);
#728=ORIENTED_EDGE('',*,*,#515,.T.);
#729=ORIENTED_EDGE('',*,*,#498,.F.);
#730=ORIENTED_EDGE('',*,*,#494,.F.);
#731=ORIENTED_EDGE('',*,*,#425,.F.);
#732=ORIENTED_EDGE('',*,*,#468,.F.);
#733=ORIENTED_EDGE('',*,*,#482,.F.);
#734=ORIENTED_EDGE('',*,*,#527,.F.);
#735=ORIENTED_EDGE('',*,*,#530,.F.);
#736=ORIENTED_EDGE('',*,*,#476,.F.);
#737=ORIENTED_EDGE('',*,*,#422,.F.);
#738=ORIENTED_EDGE('',*,*,#493,.F.);
#739=ORIENTED_EDGE('',*,*,#523,.F.);
#740=ORIENTED_EDGE('',*,*,#429,.F.);
#741=ORIENTED_EDGE('',*,*,#477,.F.);
#742=ORIENTED_EDGE('',*,*,#530,.T.);
#743=ORIENTED_EDGE('',*,*,#526,.F.);
#744=ORIENTED_EDGE('',*,*,#531,.F.);
#745=ORIENTED_EDGE('',*,*,#497,.F.);
#746=ORIENTED_EDGE('',*,*,#531,.T.);
#747=ORIENTED_EDGE('',*,*,#525,.F.);
#748=ORIENTED_EDGE('',*,*,#532,.F.);
#749=ORIENTED_EDGE('',*,*,#427,.F.);
#750=ORIENTED_EDGE('',*,*,#532,.T.);
#751=ORIENTED_EDGE('',*,*,#524,.F.);
#752=ORIENTED_EDGE('',*,*,#491,.F.);
#753=ORIENTED_EDGE('',*,*,#433,.F.);
#754=ORIENTED_EDGE('',*,*,#440,.T.);
#755=ORIENTED_EDGE('',*,*,#455,.F.);
#756=ORIENTED_EDGE('',*,*,#457,.T.);
#757=ORIENTED_EDGE('',*,*,#444,.F.);
#758=ORIENTED_EDGE('',*,*,#451,.T.);
#759=ORIENTED_EDGE('',*,*,#462,.F.);
#760=ORIENTED_EDGE('',*,*,#464,.T.);
#761=CYLINDRICAL_SURFACE('',#877,2.);
#762=CYLINDRICAL_SURFACE('',#883,2.);
#763=CYLINDRICAL_SURFACE('',#889,2.);
#764=CYLINDRICAL_SURFACE('',#895,2.);
#765=CYLINDRICAL_SURFACE('',#899,2.);
#766=CYLINDRICAL_SURFACE('',#903,2.);
#767=CYLINDRICAL_SURFACE('',#910,2.);
#768=CYLINDRICAL_SURFACE('',#912,2.);
#769=CYLINDRICAL_SURFACE('',#914,1.5);
#770=CYLINDRICAL_SURFACE('',#921,2.);
#771=CYLINDRICAL_SURFACE('',#924,2.);
#772=CYLINDRICAL_SURFACE('',#926,2.);
#773=STYLED_ITEM('',(#1421),#814);
#774=STYLED_ITEM('',(#1421),#815);
#775=STYLED_ITEM('',(#1421),#816);
#776=STYLED_ITEM('',(#1421),#817);
#777=STYLED_ITEM('',(#1421),#818);
#778=STYLED_ITEM('',(#1421),#819);
#779=STYLED_ITEM('',(#1421),#820);
#780=STYLED_ITEM('',(#1421),#821);
#781=STYLED_ITEM('',(#1421),#822);
#782=STYLED_ITEM('',(#1421),#823);
#783=STYLED_ITEM('',(#1421),#824);
#784=STYLED_ITEM('',(#1421),#825);
#785=STYLED_ITEM('',(#1421),#826);
#786=STYLED_ITEM('',(#1421),#827);
#787=STYLED_ITEM('',(#1421),#828);
#788=STYLED_ITEM('',(#1421),#829);
#789=STYLED_ITEM('',(#1421),#830);
#790=STYLED_ITEM('',(#1421),#831);
#791=STYLED_ITEM('',(#1421),#832);
#792=STYLED_ITEM('',(#1421),#836);
#793=STYLED_ITEM('',(#1421),#837);
#794=STYLED_ITEM('',(#1421),#838);
#795=STYLED_ITEM('',(#1421),#839);
#796=STYLED_ITEM('',(#1421),#840);
#797=STYLED_ITEM('',(#1421),#841);
#798=STYLED_ITEM('',(#1421),#842);
#799=STYLED_ITEM('',(#1421),#843);
#800=STYLED_ITEM('',(#1421),#844);
#801=STYLED_ITEM('',(#1421),#845);
#802=STYLED_ITEM('',(#1421),#846);
#803=STYLED_ITEM('',(#1421),#847);
#804=STYLED_ITEM('',(#1421),#848);
#805=STYLED_ITEM('',(#1421),#849);
#806=STYLED_ITEM('',(#1421),#850);
#807=STYLED_ITEM('',(#1421),#851);
#808=STYLED_ITEM('',(#1421),#852);
#809=STYLED_ITEM('',(#1421),#853);
#810=STYLED_ITEM('',(#1421),#854);
#811=STYLED_ITEM('',(#1421),#855);
#812=STYLED_ITEM('',(#1421),#856);
#813=STYLED_ITEM('',(#1420),#13);
#814=ADVANCED_FACE('',(#51),#761,.T.);
#815=ADVANCED_FACE('',(#52),#20,.T.);
#816=ADVANCED_FACE('',(#53),#21,.T.);
#817=ADVANCED_FACE('',(#54),#762,.T.);
#818=ADVANCED_FACE('',(#55),#22,.T.);
#819=ADVANCED_FACE('',(#56),#23,.T.);
#820=ADVANCED_FACE('',(#57),#763,.T.);
#821=ADVANCED_FACE('',(#58),#24,.T.);
#822=ADVANCED_FACE('',(#59),#25,.T.);
#823=ADVANCED_FACE('',(#60),#764,.T.);
#824=ADVANCED_FACE('',(#61),#26,.T.);
#825=ADVANCED_FACE('',(#62),#27,.T.);
#826=ADVANCED_FACE('',(#63),#765,.T.);
#827=ADVANCED_FACE('',(#64),#28,.T.);
#828=ADVANCED_FACE('',(#65),#29,.T.);
#829=ADVANCED_FACE('',(#66),#766,.T.);
#830=ADVANCED_FACE('',(#67),#30,.T.);
#831=ADVANCED_FACE('',(#68),#31,.T.);
#832=ADVANCED_FACE('',(#69),#32,.T.);
#833=ADVANCED_FACE('',(#70),#767,.T.);
#834=ADVANCED_FACE('',(#71),#768,.T.);
#835=ADVANCED_FACE('',(#72),#769,.F.);
#836=ADVANCED_FACE('',(#73),#33,.T.);
#837=ADVANCED_FACE('',(#74),#34,.T.);
#838=ADVANCED_FACE('',(#75),#35,.T.);
#839=ADVANCED_FACE('',(#76),#770,.T.);
#840=ADVANCED_FACE('',(#77),#771,.T.);
#841=ADVANCED_FACE('',(#78),#772,.T.);
#842=ADVANCED_FACE('',(#79,#14),#36,.T.);
#843=ADVANCED_FACE('',(#80),#37,.T.);
#844=ADVANCED_FACE('',(#81,#15,#16,#17),#38,.F.);
#845=ADVANCED_FACE('',(#82),#39,.T.);
#846=ADVANCED_FACE('',(#83),#40,.T.);
#847=ADVANCED_FACE('',(#84),#41,.T.);
#848=ADVANCED_FACE('',(#85),#42,.T.);
#849=ADVANCED_FACE('',(#86),#43,.T.);
#850=ADVANCED_FACE('',(#87),#44,.T.);
#851=ADVANCED_FACE('',(#88),#45,.T.);
#852=ADVANCED_FACE('',(#89),#46,.F.);
#853=ADVANCED_FACE('',(#90),#47,.F.);
#854=ADVANCED_FACE('',(#91),#48,.F.);
#855=ADVANCED_FACE('',(#92),#49,.T.);
#856=ADVANCED_FACE('',(#93),#50,.T.);
#857=CLOSED_SHELL('',(#814,#815,#816,#817,#818,#819,#820,#821,#822,#823,
#824,#825,#826,#827,#828,#829,#830,#831,#832,#833,#834,#835,#836,#837,#838,
#839,#840,#841,#842,#843,#844,#845,#846,#847,#848,#849,#850,#851,#852,#853,
#854,#855,#856));
#858=DERIVED_UNIT_ELEMENT(#860,1.);
#859=DERIVED_UNIT_ELEMENT(#1406,3.);
#860=(
MASS_UNIT()
NAMED_UNIT(*)
SI_UNIT($,.GRAM.)
);
#861=DERIVED_UNIT((#858,#859));
#862=MEASURE_REPRESENTATION_ITEM('density measure',
POSITIVE_RATIO_MEASURE(1.),#861);
#863=PROPERTY_DEFINITION_REPRESENTATION(#868,#865);
#864=PROPERTY_DEFINITION_REPRESENTATION(#869,#866);
#865=REPRESENTATION('material name',(#867),#1403);
#866=REPRESENTATION('density',(#862),#1403);
#867=DESCRIPTIVE_REPRESENTATION_ITEM('\X2\04220438043F043E0432044B0435\X0\',
'\X2\04220438043F043E0432044B0435\X0\');
#868=PROPERTY_DEFINITION('material property','material name',#1413);
#869=PROPERTY_DEFINITION('material property','density of part',#1413);
#870=DATE_TIME_ROLE('creation_date');
#871=APPLIED_DATE_AND_TIME_ASSIGNMENT(#872,#870,(#1413));
#872=DATE_AND_TIME(#873,#874);
#873=CALENDAR_DATE(2019,18,12);
#874=LOCAL_TIME(20,15,51.,#875);
#875=COORDINATED_UNIVERSAL_TIME_OFFSET(0,0,.BEHIND.);
#876=AXIS2_PLACEMENT_3D('placement',#1168,#943,#944);
#877=AXIS2_PLACEMENT_3D('',#1169,#945,#946);
#878=AXIS2_PLACEMENT_3D('',#1172,#947,#948);
#879=AXIS2_PLACEMENT_3D('',#1176,#950,#951);
#880=AXIS2_PLACEMENT_3D('',#1178,#953,#954);
#881=AXIS2_PLACEMENT_3D('',#1182,#956,#957);
#882=AXIS2_PLACEMENT_3D('',#1190,#962,#963);
#883=AXIS2_PLACEMENT_3D('',#1196,#967,#968);
#884=AXIS2_PLACEMENT_3D('',#1199,#969,#970);
#885=AXIS2_PLACEMENT_3D('',#1203,#972,#973);
#886=AXIS2_PLACEMENT_3D('',#1205,#975,#976);
#887=AXIS2_PLACEMENT_3D('',#1213,#980,#981);
#888=AXIS2_PLACEMENT_3D('',#1215,#983,#984);
#889=AXIS2_PLACEMENT_3D('',#1219,#987,#988);
#890=AXIS2_PLACEMENT_3D('',#1222,#989,#990);
#891=AXIS2_PLACEMENT_3D('',#1226,#992,#993);
#892=AXIS2_PLACEMENT_3D('',#1228,#995,#996);
#893=AXIS2_PLACEMENT_3D('',#1236,#1000,#1001);
#894=AXIS2_PLACEMENT_3D('',#1238,#1003,#1004);
#895=AXIS2_PLACEMENT_3D('',#1242,#1007,#1008);
#896=AXIS2_PLACEMENT_3D('',#1245,#1009,#1010);
#897=AXIS2_PLACEMENT_3D('',#1248,#1013,#1014);
#898=AXIS2_PLACEMENT_3D('',#1253,#1018,#1019);
#899=AXIS2_PLACEMENT_3D('',#1255,#1021,#1022);
#900=AXIS2_PLACEMENT_3D('',#1258,#1023,#1024);
#901=AXIS2_PLACEMENT_3D('',#1261,#1027,#1028);
#902=AXIS2_PLACEMENT_3D('',#1266,#1032,#1033);
#903=AXIS2_PLACEMENT_3D('',#1268,#1035,#1036);
#904=AXIS2_PLACEMENT_3D('',#1271,#1037,#1038);
#905=AXIS2_PLACEMENT_3D('',#1275,#1040,#1041);
#906=AXIS2_PLACEMENT_3D('',#1277,#1043,#1044);
#907=AXIS2_PLACEMENT_3D('',#1285,#1049,#1050);
#908=AXIS2_PLACEMENT_3D('',#1294,#1055,#1056);
#909=AXIS2_PLACEMENT_3D('',#1295,#1057,#1058);
#910=AXIS2_PLACEMENT_3D('',#1299,#1061,#1062);
#911=AXIS2_PLACEMENT_3D('',#1301,#1063,#1064);
#912=AXIS2_PLACEMENT_3D('',#1303,#1066,#1067);
#913=AXIS2_PLACEMENT_3D('',#1306,#1069,#1070);
#914=AXIS2_PLACEMENT_3D('',#1307,#1071,#1072);
#915=AXIS2_PLACEMENT_3D('',#1310,#1073,#1074);
#916=AXIS2_PLACEMENT_3D('',#1311,#1075,#1076);
#917=AXIS2_PLACEMENT_3D('',#1314,#1078,#1079);
#918=AXIS2_PLACEMENT_3D('',#1315,#1080,#1081);
#919=AXIS2_PLACEMENT_3D('',#1321,#1085,#1086);
#920=AXIS2_PLACEMENT_3D('',#1328,#1091,#1092);
#921=AXIS2_PLACEMENT_3D('',#1334,#1096,#1097);
#922=AXIS2_PLACEMENT_3D('',#1339,#1099,#1100);
#923=AXIS2_PLACEMENT_3D('',#1342,#1102,#1103);
#924=AXIS2_PLACEMENT_3D('',#1343,#1104,#1105);
#925=AXIS2_PLACEMENT_3D('',#1347,#1107,#1108);
#926=AXIS2_PLACEMENT_3D('',#1349,#1110,#1111);
#927=AXIS2_PLACEMENT_3D('',#1353,#1113,#1114);
#928=AXIS2_PLACEMENT_3D('',#1355,#1116,#1117);
#929=AXIS2_PLACEMENT_3D('',#1357,#1119,#1120);
#930=AXIS2_PLACEMENT_3D('',#1368,#1127,#1128);
#931=AXIS2_PLACEMENT_3D('',#1384,#1139,#1140);
#932=AXIS2_PLACEMENT_3D('',#1387,#1143,#1144);
#933=AXIS2_PLACEMENT_3D('',#1388,#1145,#1146);
#934=AXIS2_PLACEMENT_3D('',#1389,#1147,#1148);
#935=AXIS2_PLACEMENT_3D('',#1390,#1149,#1150);
#936=AXIS2_PLACEMENT_3D('',#1391,#1151,#1152);
#937=AXIS2_PLACEMENT_3D('',#1393,#1154,#1155);
#938=AXIS2_PLACEMENT_3D('',#1394,#1156,#1157);
#939=AXIS2_PLACEMENT_3D('',#1396,#1159,#1160);
#940=AXIS2_PLACEMENT_3D('',#1398,#1162,#1163);
#941=AXIS2_PLACEMENT_3D('',#1399,#1164,#1165);
#942=AXIS2_PLACEMENT_3D('',#1400,#1166,#1167);
#943=DIRECTION('axis',(0.,0.,1.));
#944=DIRECTION('refdir',(1.,0.,0.));
#945=DIRECTION('center_axis',(2.64338815386942E-16,0.,1.));
#946=DIRECTION('ref_axis',(-0.707106781186547,-0.707106781186548,0.));
#947=DIRECTION('center_axis',(-2.64338815386942E-16,0.,-1.));
#948=DIRECTION('ref_axis',(-0.707106781186547,-0.707106781186548,0.));
#949=DIRECTION('',(-2.64338815386942E-16,0.,-1.));
#950=DIRECTION('center_axis',(2.77555756156289E-16,0.,1.));
#951=DIRECTION('ref_axis',(-0.707106781186547,-0.707106781186548,0.));
#952=DIRECTION('',(2.64338815386942E-16,0.,1.));
#953=DIRECTION('center_axis',(-1.,0.,2.64338815386942E-16));
#954=DIRECTION('ref_axis',(2.64338815386942E-16,0.,1.));
#955=DIRECTION('',(0.,1.,0.));
#956=DIRECTION('center_axis',(1.,0.,-2.64338815386942E-16));
#957=DIRECTION('ref_axis',(1.86915768890926E-16,0.707106781186548,0.707106781186547));
#958=DIRECTION('',(-2.44929359829471E-16,0.,-1.));
#959=DIRECTION('',(0.,-1.,0.));
#960=DIRECTION('',(2.64338815386942E-16,0.,1.));
#961=DIRECTION('',(0.,-1.,0.));
#962=DIRECTION('center_axis',(2.64338815386942E-16,0.,1.));
#963=DIRECTION('ref_axis',(0.,1.,0.));
#964=DIRECTION('',(1.,0.,-2.64338815386942E-16));
#965=DIRECTION('',(0.,1.,0.));
#966=DIRECTION('',(1.,0.,-2.64338815386942E-16));
#967=DIRECTION('center_axis',(2.64338815386942E-16,0.,1.));
#968=DIRECTION('ref_axis',(-0.707106781186548,-0.707106781186548,0.));
#969=DIRECTION('center_axis',(-2.64338815386942E-16,0.,-1.));
#970=DIRECTION('ref_axis',(-0.707106781186548,-0.707106781186548,0.));
#971=DIRECTION('',(-2.64338815386942E-16,0.,-1.));
#972=DIRECTION('center_axis',(2.77555756156289E-16,0.,1.));
#973=DIRECTION('ref_axis',(-0.707106781186548,-0.707106781186548,0.));
#974=DIRECTION('',(2.64338815386942E-16,0.,1.));
#975=DIRECTION('center_axis',(2.64338815386942E-16,0.,1.));
#976=DIRECTION('ref_axis',(0.,1.,0.));
#977=DIRECTION('',(1.,0.,-2.64338815386942E-16));
#978=DIRECTION('',(0.,1.,0.));
#979=DIRECTION('',(-1.,0.,2.64338815386942E-16));
#980=DIRECTION('center_axis',(-2.64338815386942E-16,0.,-1.));
#981=DIRECTION('ref_axis',(-0.707106781186548,0.707106781186548,3.92523114670943E-16));
#982=DIRECTION('',(0.,1.,0.));
#983=DIRECTION('center_axis',(0.,-1.,0.));
#984=DIRECTION('ref_axis',(2.44929359829471E-16,0.,1.));
#985=DIRECTION('',(1.,0.,-2.11471052309554E-16));
#986=DIRECTION('',(-3.33066907387547E-16,0.,-1.));
#987=DIRECTION('center_axis',(2.64338815386942E-16,0.,1.));
#988=DIRECTION('ref_axis',(-0.707106781186548,-0.707106781186547,0.));
#989=DIRECTION('center_axis',(-2.64338815386942E-16,0.,-1.));
#990=DIRECTION('ref_axis',(-0.707106781186548,-0.707106781186547,0.));
#991=DIRECTION('',(-2.64338815386942E-16,0.,-1.));
#992=DIRECTION('center_axis',(2.77555756156289E-16,0.,1.));
#993=DIRECTION('ref_axis',(-0.707106781186548,-0.707106781186547,0.));
#994=DIRECTION('',(2.64338815386942E-16,0.,1.));
#995=DIRECTION('center_axis',(2.64338815386942E-16,0.,1.));
#996=DIRECTION('ref_axis',(0.,1.,0.));
#997=DIRECTION('',(1.,0.,-2.64338815386942E-16));
#998=DIRECTION('',(0.,1.,0.));
#999=DIRECTION('',(-1.,0.,2.64338815386942E-16));
#1000=DIRECTION('center_axis',(-2.64338815386942E-16,0.,-1.));
#1001=DIRECTION('ref_axis',(-0.707106781186548,0.707106781186547,3.92523114670944E-16));
#1002=DIRECTION('',(0.,1.,0.));
#1003=DIRECTION('center_axis',(0.,-1.,0.));
#1004=DIRECTION('ref_axis',(2.44929359829471E-16,0.,1.));
#1005=DIRECTION('',(1.,0.,-2.11471052309554E-16));
#1006=DIRECTION('',(-3.33066907387547E-16,0.,-1.));
#1007=DIRECTION('center_axis',(-2.64338815386942E-16,0.,-1.));
#1008=DIRECTION('ref_axis',(-0.707106781186548,0.707106781186548,3.92523114670943E-16));
#1009=DIRECTION('center_axis',(2.77555756156289E-16,0.,1.));
#1010=DIRECTION('ref_axis',(-0.707106781186548,0.707106781186548,3.92523114670943E-16));
#1011=DIRECTION('',(2.64338815386942E-16,0.,1.));
#1012=DIRECTION('',(-2.64338815386942E-16,0.,-1.));
#1013=DIRECTION('center_axis',(-2.77555756156289E-16,0.,-1.));
#1014=DIRECTION('ref_axis',(0.,-1.,0.));
#1015=DIRECTION('',(0.,-1.,0.));
#1016=DIRECTION('',(-1.,0.,2.77555756156289E-16));
#1017=DIRECTION('',(-9.71445146547012E-17,1.,2.69630192214213E-32));
#1018=DIRECTION('center_axis',(0.,1.,0.));
#1019=DIRECTION('ref_axis',(-2.44929359829471E-16,0.,-1.));
#1020=DIRECTION('',(3.33066907387547E-16,0.,1.));
#1021=DIRECTION('center_axis',(-2.64338815386942E-16,0.,-1.));
#1022=DIRECTION('ref_axis',(-0.707106781186548,0.707106781186547,3.92523114670944E-16));
#1023=DIRECTION('center_axis',(2.77555756156289E-16,0.,1.));
#1024=DIRECTION('ref_axis',(-0.707106781186548,0.707106781186547,3.92523114670944E-16));
#1025=DIRECTION('',(2.64338815386942E-16,0.,1.));
#1026=DIRECTION('',(-2.64338815386942E-16,0.,-1.));
#1027=DIRECTION('center_axis',(-2.77555756156289E-16,0.,-1.));
#1028=DIRECTION('ref_axis',(0.,-1.,0.));
#1029=DIRECTION('',(8.02470810161348E-32,-1.,3.03576608295941E-16));
#1030=DIRECTION('',(-1.,0.,2.77555756156289E-16));
#1031=DIRECTION('',(-9.71445146547013E-17,1.,-3.03576608295941E-16));
#1032=DIRECTION('center_axis',(0.,1.,0.));
#1033=DIRECTION('ref_axis',(-2.44929359829471E-16,0.,-1.));
#1034=DIRECTION('',(3.33066907387547E-16,0.,1.));
#1035=DIRECTION('center_axis',(-2.64338815386942E-16,-1.48029736616688E-15,
-1.));
#1036=DIRECTION('ref_axis',(-0.707106781186548,0.707106781186548,-7.85046229341887E-16));
#1037=DIRECTION('center_axis',(2.77555756156289E-16,0.,1.));
#1038=DIRECTION('ref_axis',(-0.707106781186548,0.707106781186548,-7.85046229341887E-16));
#1039=DIRECTION('',(2.64338815386942E-16,1.48029736616688E-15,1.));
#1040=DIRECTION('center_axis',(-2.64338815386942E-16,0.,-1.));
#1041=DIRECTION('ref_axis',(-0.707106781186548,0.707106781186548,-7.85046229341887E-16));
#1042=DIRECTION('',(-2.64338815386942E-16,-1.48029736616688E-15,-1.));
#1043=DIRECTION('center_axis',(2.64338815386942E-16,0.,1.));
#1044=DIRECTION('ref_axis',(0.,1.,0.));
#1045=DIRECTION('',(0.,1.,0.));
#1046=DIRECTION('',(-1.,0.,2.64338815386942E-16));
#1047=DIRECTION('',(0.,1.,0.));
#1048=DIRECTION('',(-1.,-1.95650026096481E-32,2.64338815386942E-16));
#1049=DIRECTION('center_axis',(-1.,0.,2.64338815386942E-16));
#1050=DIRECTION('ref_axis',(2.64338815386942E-16,0.,1.));
#1051=DIRECTION('',(8.02470810161348E-32,-1.,3.03576608295941E-16));
#1052=DIRECTION('',(-2.64338815386942E-16,0.,-1.));
#1053=DIRECTION('',(0.,-1.,0.));
#1054=DIRECTION('',(2.44929359829471E-16,0.,1.));
#1055=DIRECTION('center_axis',(1.,0.,-2.64338815386942E-16));
#1056=DIRECTION('ref_axis',(1.86915768890926E-16,-0.707106781186548,0.707106781186547));
#1057=DIRECTION('center_axis',(-4.1086505480261E-31,1.,-1.48029736616688E-15));
#1058=DIRECTION('ref_axis',(-2.44929359829471E-16,-1.48029736616688E-15,
-1.));
#1059=DIRECTION('',(3.33066907387547E-16,1.48029736616688E-15,1.));
#1060=DIRECTION('',(-1.,0.,2.77555756156289E-16));
#1061=DIRECTION('center_axis',(-1.,0.,2.64338815386942E-16));
#1062=DIRECTION('ref_axis',(1.86915768890926E-16,0.707106781186548,0.707106781186547));
#1063=DIRECTION('center_axis',(1.,-5.55111512312578E-17,-2.64338815386942E-16));
#1064=DIRECTION('ref_axis',(1.86915768890926E-16,0.707106781186548,0.707106781186547));
#1065=DIRECTION('',(-1.,0.,2.64338815386942E-16));
#1066=DIRECTION('center_axis',(-1.,0.,2.64338815386942E-16));
#1067=DIRECTION('ref_axis',(1.86915768890926E-16,-0.707106781186548,0.707106781186547));
#1068=DIRECTION('',(1.,0.,-2.64338815386942E-16));
#1069=DIRECTION('center_axis',(1.,-5.55111512312578E-17,-2.64338815386942E-16));
#1070=DIRECTION('ref_axis',(1.86915768890926E-16,-0.707106781186548,0.707106781186547));
#1071=DIRECTION('center_axis',(1.,0.,0.));
#1072=DIRECTION('ref_axis',(0.,-1.79395793613211E-16,-1.));
#1073=DIRECTION('center_axis',(-1.,0.,0.));
#1074=DIRECTION('ref_axis',(0.,-1.79395793613211E-16,-1.));
#1075=DIRECTION('center_axis',(-1.,0.,0.));
#1076=DIRECTION('ref_axis',(0.,-1.79395793613211E-16,-1.));
#1077=DIRECTION('',(-1.,0.,0.));
#1078=DIRECTION('center_axis',(1.,-5.55111512312578E-17,-2.64338815386942E-16));
#1079=DIRECTION('ref_axis',(0.,-1.79395793613211E-16,-1.));
#1080=DIRECTION('center_axis',(-2.77555756156289E-16,0.,-1.));
#1081=DIRECTION('ref_axis',(0.,-1.,0.));
#1082=DIRECTION('',(1.,0.,-2.11471052309554E-16));
#1083=DIRECTION('',(-9.71445146547013E-17,1.,-3.03576608295941E-16));
#1084=DIRECTION('',(-1.,0.,2.77555756156289E-16));
#1085=DIRECTION('center_axis',(-0.230025453928971,0.,0.97318461277641));
#1086=DIRECTION('ref_axis',(0.97318461277641,0.,0.230025453928971));
#1087=DIRECTION('',(-0.97318461277641,0.,-0.230025453928971));
#1088=DIRECTION('',(0.,1.,0.));
#1089=DIRECTION('',(-0.97318461277641,0.,-0.230025453928971));
#1090=DIRECTION('',(-4.58554748663627E-32,1.,-1.73472347597681E-16));
#1091=DIRECTION('center_axis',(-1.,0.,0.));
#1092=DIRECTION('ref_axis',(0.,0.,1.));
#1093=DIRECTION('',(0.,0.,-1.));
#1094=DIRECTION('',(0.,1.,0.));
#1095=DIRECTION('',(0.,0.,-1.));
#1096=DIRECTION('center_axis',(0.,-8.56207928038496E-33,-1.));
#1097=DIRECTION('ref_axis',(0.707106781186546,-0.707106781186549,0.));
#1098=DIRECTION('',(0.,-8.56207928038496E-33,-1.));
#1099=DIRECTION('center_axis',(2.64338815386942E-16,-5.41572207134223E-17,
1.));
#1100=DIRECTION('ref_axis',(0.707106781186546,-0.707106781186549,0.));
#1101=DIRECTION('',(0.,8.56207928038496E-33,1.));
#1102=DIRECTION('center_axis',(0.,-0.707106781186547,-0.707106781186548));
#1103=DIRECTION('ref_axis',(0.,-0.707106781186548,0.707106781186547));
#1104=DIRECTION('center_axis',(0.,-1.,1.81540828881294E-16));
#1105=DIRECTION('ref_axis',(0.707106781186548,0.,0.707106781186547));
#1106=DIRECTION('',(0.,1.,-1.81540828881294E-16));
#1107=DIRECTION('center_axis',(-9.8130778667736E-17,-0.707106781186547,
0.707106781186548));
#1108=DIRECTION('ref_axis',(-9.81307786677359E-17,0.707106781186548,0.707106781186547));
#1109=DIRECTION('',(0.,-1.,1.81540828881294E-16));
#1110=DIRECTION('center_axis',(0.,8.56207928038496E-33,1.));
#1111=DIRECTION('ref_axis',(0.707106781186549,0.707106781186546,0.));
#1112=DIRECTION('',(0.,-8.56207928038496E-33,-1.));
#1113=DIRECTION('center_axis',(2.64338815386942E-16,-5.41572207134223E-17,
1.));
#1114=DIRECTION('ref_axis',(0.707106781186549,0.707106781186546,0.));
#1115=DIRECTION('',(0.,8.56207928038496E-33,1.));
#1116=DIRECTION('center_axis',(1.,0.,0.));
#1117=DIRECTION('ref_axis',(0.,0.,-1.));
#1118=DIRECTION('',(-8.19000109241083E-32,1.,-3.09829681290741E-16));
#1119=DIRECTION('center_axis',(-2.64338815386942E-16,5.41572207134223E-17,
-1.));
#1120=DIRECTION('ref_axis',(-1.32646933994819E-32,-1.,-5.41572207134223E-17));
#1121=DIRECTION('',(1.,0.,0.));
#1122=DIRECTION('',(8.19000109241083E-32,-1.,3.09829681290741E-16));
#1123=DIRECTION('',(-1.,0.,2.64338815386942E-16));
#1124=DIRECTION('',(-1.,0.,2.64338815386942E-16));
#1125=DIRECTION('',(8.19000109241083E-32,-1.,3.09829681290741E-16));
#1126=DIRECTION('',(1.,0.,0.));
#1127=DIRECTION('center_axis',(1.,-5.55111512312578E-17,-2.64338815386942E-16));
#1128=DIRECTION('ref_axis',(-2.64338815386942E-16,0.,-1.));
#1129=DIRECTION('',(2.44929359829471E-16,0.,1.));
#1130=DIRECTION('',(2.64338815386942E-16,8.56207928038496E-33,1.));
#1131=DIRECTION('',(-4.79882876508447E-32,1.,-1.81540828881294E-16));
#1132=DIRECTION('',(-2.64338815386942E-16,-8.56207928038496E-33,-1.));
#1133=DIRECTION('',(-2.44929359829471E-16,0.,-1.));
#1134=DIRECTION('',(-3.33066907387547E-16,0.,-1.));
#1135=DIRECTION('',(-3.33066907387547E-16,0.,-1.));
#1136=DIRECTION('',(9.71445146547013E-17,-1.,1.73472347597681E-16));
#1137=DIRECTION('',(3.33066907387547E-16,0.,1.));
#1138=DIRECTION('',(-9.71445146547013E-17,1.,-3.03576608295941E-16));
#1139=DIRECTION('center_axis',(0.,1.81540828881294E-16,1.));
#1140=DIRECTION('ref_axis',(4.79882876508447E-32,-1.,1.81540828881294E-16));
#1141=DIRECTION('',(1.,0.,0.));
#1142=DIRECTION('',(1.,0.,0.));
#1143=DIRECTION('center_axis',(0.,1.,-8.56207928038496E-33));
#1144=DIRECTION('ref_axis',(2.64338815386942E-16,8.56207928038496E-33,1.));
#1145=DIRECTION('center_axis',(0.,-1.,8.56207928038496E-33));
#1146=DIRECTION('ref_axis',(-2.64338815386942E-16,-8.56207928038496E-33,
-1.));
#1147=DIRECTION('center_axis',(0.,-1.,0.));
#1148=DIRECTION('ref_axis',(2.44929359829471E-16,0.,1.));
#1149=DIRECTION('center_axis',(0.,1.,0.));
#1150=DIRECTION('ref_axis',(-2.44929359829471E-16,0.,-1.));
#1151=DIRECTION('center_axis',(-2.77555756156289E-16,0.,-1.));
#1152=DIRECTION('ref_axis',(0.,-1.,0.));
#1153=DIRECTION('',(1.,0.,-2.11471052309554E-16));
#1154=DIRECTION('center_axis',(0.,-1.,0.));
#1155=DIRECTION('ref_axis',(2.44929359829471E-16,0.,1.));
#1156=DIRECTION('center_axis',(0.,-1.,0.));
#1157=DIRECTION('ref_axis',(-2.64338815386942E-16,0.,-1.));
#1158=DIRECTION('',(1.,0.,-2.11471052309554E-16));
#1159=DIRECTION('center_axis',(-2.11471052309554E-16,-1.73472347597681E-16,
-1.));
#1160=DIRECTION('ref_axis',(-4.58554748663627E-32,1.,-1.73472347597681E-16));
#1161=DIRECTION('',(1.,0.,-2.11471052309554E-16));
#1162=DIRECTION('center_axis',(0.,1.,0.));
#1163=DIRECTION('ref_axis',(2.64338815386942E-16,0.,1.));
#1164=DIRECTION('center_axis',(-1.,0.,2.64338815386942E-16));
#1165=DIRECTION('ref_axis',(2.64338815386942E-16,0.,1.));
#1166=DIRECTION('center_axis',(-1.,0.,2.64338815386942E-16));
#1167=DIRECTION('ref_axis',(2.64338815386942E-16,0.,1.));
#1168=CARTESIAN_POINT('',(0.,0.,0.));
#1169=CARTESIAN_POINT('Origin',(-8.5,32.9,-6.475));
#1170=CARTESIAN_POINT('',(-8.5,30.9,-2.6));
#1171=CARTESIAN_POINT('',(-10.5,32.9,-2.6));
#1172=CARTESIAN_POINT('Origin',(-8.5,32.9,-2.6));
#1173=CARTESIAN_POINT('',(-10.5,32.9,-5.1));
#1174=CARTESIAN_POINT('',(-10.5,32.9,-6.475));
#1175=CARTESIAN_POINT('',(-8.5,30.9,-5.1));
#1176=CARTESIAN_POINT('Origin',(-8.5,32.9,-5.1));
#1177=CARTESIAN_POINT('',(-8.5,30.9,-6.475));
#1178=CARTESIAN_POINT('Origin',(-10.5,0.,-7.35));
#1179=CARTESIAN_POINT('',(-10.5,38.5,-2.6));
#1180=CARTESIAN_POINT('',(-10.5,-41.,-2.6));
#1181=CARTESIAN_POINT('',(-10.5,40.5,-4.6));
#1182=CARTESIAN_POINT('Origin',(-10.5,38.5,-4.6));
#1183=CARTESIAN_POINT('',(-10.5,40.5,-9.8));
#1184=CARTESIAN_POINT('',(-10.5,40.5,-2.6));
#1185=CARTESIAN_POINT('',(-10.5,38.4,-9.80000000000001));
#1186=CARTESIAN_POINT('',(-10.5,-20.5,-9.8));
#1187=CARTESIAN_POINT('',(-10.5,38.4,-5.10000000000002));
#1188=CARTESIAN_POINT('',(-10.5,38.4,-8.57500000000001));
#1189=CARTESIAN_POINT('',(-10.5,-11.85,-5.1));
#1190=CARTESIAN_POINT('Origin',(-6.36816335556624E-16,-41.,-2.6));
#1191=CARTESIAN_POINT('',(-6.36816335556624E-16,30.9,-2.6));
#1192=CARTESIAN_POINT('',(-6.07702152220417E-16,30.9,-2.6));
#1193=CARTESIAN_POINT('',(-6.36816335556624E-16,38.5,-2.6));
#1194=CARTESIAN_POINT('',(-6.36816335556624E-16,-41.,-2.6));
#1195=CARTESIAN_POINT('',(-6.36816335556624E-16,38.5,-2.6));
#1196=CARTESIAN_POINT('Origin',(-8.5,6.5,-7.475));
#1197=CARTESIAN_POINT('',(-8.5,4.5,-2.6));
#1198=CARTESIAN_POINT('',(-10.5,6.5,-2.6));
#1199=CARTESIAN_POINT('Origin',(-8.5,6.5,-2.6));
#1200=CARTESIAN_POINT('',(-10.5,6.5,-5.1));
#1201=CARTESIAN_POINT('',(-10.5,6.5,-7.475));
#1202=CARTESIAN_POINT('',(-8.5,4.5,-5.10000000000001));
#1203=CARTESIAN_POINT('Origin',(-8.5,6.5,-5.1));
#1204=CARTESIAN_POINT('',(-8.5,4.5,-7.475));
#1205=CARTESIAN_POINT('Origin',(-6.36816335556624E-16,-41.,-2.6));
#1206=CARTESIAN_POINT('',(-6.36816335556624E-16,4.5,-2.6));
#1207=CARTESIAN_POINT('',(-5.88292696662945E-16,4.5,-2.6));
#1208=CARTESIAN_POINT('',(-6.36816335556624E-16,26.9,-2.6));
#1209=CARTESIAN_POINT('',(-6.36816335556624E-16,-41.,-2.6));
#1210=CARTESIAN_POINT('',(-8.5,26.9,-2.6));
#1211=CARTESIAN_POINT('',(-6.36816335556624E-16,26.9,-2.6));
#1212=CARTESIAN_POINT('',(-10.5,24.9,-2.6));
#1213=CARTESIAN_POINT('Origin',(-8.5,24.9,-2.6));
#1214=CARTESIAN_POINT('',(-10.5,-41.,-2.6));
#1215=CARTESIAN_POINT('Origin',(-1.86146313470398E-15,4.5,-7.6));
#1216=CARTESIAN_POINT('',(-2.22044604925031E-15,4.5,-5.10000000000001));
#1217=CARTESIAN_POINT('',(-5.25,4.5,-5.10000000000001));
#1218=CARTESIAN_POINT('',(-2.23044221678886E-15,4.5,-7.475));
#1219=CARTESIAN_POINT('Origin',(-8.5,-18.2,-7.475));
#1220=CARTESIAN_POINT('',(-8.5,-20.2,-2.6));
#1221=CARTESIAN_POINT('',(-10.5,-18.2,-2.6));
#1222=CARTESIAN_POINT('Origin',(-8.5,-18.2,-2.6));
#1223=CARTESIAN_POINT('',(-10.5,-18.2,-5.1));
#1224=CARTESIAN_POINT('',(-10.5,-18.2,-7.475));
#1225=CARTESIAN_POINT('',(-8.5,-20.2,-5.1));
#1226=CARTESIAN_POINT('Origin',(-8.5,-18.2,-5.1));
#1227=CARTESIAN_POINT('',(-8.5,-20.2,-7.475));
#1228=CARTESIAN_POINT('Origin',(-6.36816335556624E-16,-41.,-2.6));
#1229=CARTESIAN_POINT('',(-6.36816335556624E-16,-20.2,-2.6));
#1230=CARTESIAN_POINT('',(-5.88292696662945E-16,-20.2,-2.6));
#1231=CARTESIAN_POINT('',(-6.36816335556624E-16,-11.2,-2.6));
#1232=CARTESIAN_POINT('',(-6.36816335556624E-16,-41.,-2.6));
#1233=CARTESIAN_POINT('',(-8.5,-11.2,-2.6));
#1234=CARTESIAN_POINT('',(-6.36816335556624E-16,-11.2,-2.6));
#1235=CARTESIAN_POINT('',(-10.5,-13.2,-2.6));
#1236=CARTESIAN_POINT('Origin',(-8.5,-13.2,-2.6));
#1237=CARTESIAN_POINT('',(-10.5,-41.,-2.6));
#1238=CARTESIAN_POINT('Origin',(-1.86146313470398E-15,-20.2,-7.6));
#1239=CARTESIAN_POINT('',(-2.22044604925031E-15,-20.2,-5.1));
#1240=CARTESIAN_POINT('',(-5.25,-20.2,-5.1));
#1241=CARTESIAN_POINT('',(1.69027295182262E-16,-20.2,-7.475));
#1242=CARTESIAN_POINT('Origin',(-8.5,24.9,-4.975));
#1243=CARTESIAN_POINT('',(-8.5,26.9,-5.1));
#1244=CARTESIAN_POINT('',(-10.5,24.9,-5.1));
#1245=CARTESIAN_POINT('Origin',(-8.5,24.9,-5.1));
#1246=CARTESIAN_POINT('',(-10.5,24.9,-4.975));
#1247=CARTESIAN_POINT('',(-8.5,26.9,-4.975));
#1248=CARTESIAN_POINT('Origin',(-1.37160441504504E-15,-23.7,-5.1));
#1249=CARTESIAN_POINT('',(-10.5,13.7,-5.1));
#1250=CARTESIAN_POINT('',(-1.37160441504504E-15,26.9,-5.1));
#1251=CARTESIAN_POINT('',(-1.37160441504504E-15,26.9,-5.1));
#1252=CARTESIAN_POINT('',(-2.54824355758781E-15,13.7,-5.1));
#1253=CARTESIAN_POINT('Origin',(-6.36816335556624E-16,26.9,-2.6));
#1254=CARTESIAN_POINT('',(-3.67095659124E-15,26.9,-4.975));
#1255=CARTESIAN_POINT('Origin',(-8.5,-13.2,-4.975));
#1256=CARTESIAN_POINT('',(-8.5,-11.2,-5.1));
#1257=CARTESIAN_POINT('',(-10.5,-13.2,-5.1));
#1258=CARTESIAN_POINT('Origin',(-8.5,-13.2,-5.1));
#1259=CARTESIAN_POINT('',(-10.5,-13.2,-4.975));
#1260=CARTESIAN_POINT('',(-8.5,-11.2,-4.975));
#1261=CARTESIAN_POINT('Origin',(-1.37160441504504E-15,-23.7,-5.1));
#1262=CARTESIAN_POINT('',(-10.5,19.2,-5.10000000000001));
#1263=CARTESIAN_POINT('',(-1.37160441504504E-15,-11.2,-5.1));
#1264=CARTESIAN_POINT('',(-1.37160441504504E-15,-11.2,-5.1));
#1265=CARTESIAN_POINT('',(-3.33066907387547E-15,19.2,-5.10000000000001));
#1266=CARTESIAN_POINT('Origin',(-6.36816335556624E-16,-11.2,-2.6));
#1267=CARTESIAN_POINT('',(3.02494171041171E-17,-11.2,-4.975));
#1268=CARTESIAN_POINT('Origin',(-8.5,-26.2,-4.97499999999998));
#1269=CARTESIAN_POINT('',(-8.5,-24.2,-5.1));
#1270=CARTESIAN_POINT('',(-10.5,-26.2,-5.1));
#1271=CARTESIAN_POINT('Origin',(-8.5,-26.2,-5.09999999999999));
#1272=CARTESIAN_POINT('',(-10.5,-26.2,-2.6));
#1273=CARTESIAN_POINT('',(-10.5,-26.2,-4.97499999999998));
#1274=CARTESIAN_POINT('',(-8.5,-24.2,-2.6));
#1275=CARTESIAN_POINT('Origin',(-8.5,-26.2,-2.60000000000002));
#1276=CARTESIAN_POINT('',(-8.5,-24.2,-4.97499999999998));
#1277=CARTESIAN_POINT('Origin',(-6.36816335556624E-16,-41.,-2.6));
#1278=CARTESIAN_POINT('',(-10.5,-38.5,-2.6));
#1279=CARTESIAN_POINT('',(-10.5,-20.5,-2.6));
#1280=CARTESIAN_POINT('',(-6.36816335556624E-16,-38.5,-2.6));
#1281=CARTESIAN_POINT('',(-5.44621421658635E-16,-38.5,-2.6));
#1282=CARTESIAN_POINT('',(-6.36816335556624E-16,-24.2,-2.6));
#1283=CARTESIAN_POINT('',(-6.36816335556624E-16,-41.,-2.6));
#1284=CARTESIAN_POINT('',(-6.36816335556624E-16,-24.2,-2.6));
#1285=CARTESIAN_POINT('Origin',(-10.5,0.,-7.35));
#1286=CARTESIAN_POINT('',(-10.5,-38.4,-5.09999999999999));
#1287=CARTESIAN_POINT('',(-10.5,19.2,-5.10000000000001));
#1288=CARTESIAN_POINT('',(-10.5,-38.4,-9.8));
#1289=CARTESIAN_POINT('',(-10.5,-38.4,-6.475));
#1290=CARTESIAN_POINT('',(-10.5,-40.5,-9.8));
#1291=CARTESIAN_POINT('',(-10.5,-20.5,-9.8));
#1292=CARTESIAN_POINT('',(-10.5,-40.5,-4.6));
#1293=CARTESIAN_POINT('',(-10.5,-40.5,-12.1));
#1294=CARTESIAN_POINT('Origin',(-10.5,-38.5,-4.6));
#1295=CARTESIAN_POINT('Origin',(-6.36816335556624E-16,-24.2,-2.6));
#1296=CARTESIAN_POINT('',(-1.37160441504504E-15,-24.2,-5.1));
#1297=CARTESIAN_POINT('',(1.29312810761524E-15,-24.2,-4.97499999999998));
#1298=CARTESIAN_POINT('',(-1.37160441504504E-15,-24.2,-5.1));
#1299=CARTESIAN_POINT('Origin',(-1.16549396633051E-15,38.5,-4.6));
#1300=CARTESIAN_POINT('',(-1.12667505521557E-15,40.5,-4.6));
#1301=CARTESIAN_POINT('Origin',(3.22493354772069E-15,38.5,-4.6));
#1302=CARTESIAN_POINT('',(-1.16549396633051E-15,40.5,-4.6));
#1303=CARTESIAN_POINT('Origin',(-1.07329905243252E-15,-38.5,-4.6));
#1304=CARTESIAN_POINT('',(-1.12667505521557E-15,-40.5,-4.6));
#1305=CARTESIAN_POINT('',(-1.07329905243252E-15,-40.5,-4.6));
#1306=CARTESIAN_POINT('Origin',(3.22493354772069E-15,-38.5,-4.6));
#1307=CARTESIAN_POINT('Origin',(-6.,0.,-4.60000000000002));
#1308=CARTESIAN_POINT('',(4.,-2.69093690419817E-16,-6.10000000000002));
#1309=CARTESIAN_POINT('',(4.,8.5396670547714E-17,-3.10000000000002));
#1310=CARTESIAN_POINT('Origin',(4.,0.,-4.60000000000002));
#1311=CARTESIAN_POINT('Origin',(4.,0.,-4.60000000000002));
#1312=CARTESIAN_POINT('',(3.33066907387547E-15,8.5396670547714E-17,-3.10000000000002));
#1313=CARTESIAN_POINT('',(-6.,8.5396670547714E-17,-3.10000000000002));
#1314=CARTESIAN_POINT('Origin',(3.33066907387547E-15,0.,-4.60000000000002));
#1315=CARTESIAN_POINT('Origin',(-1.37160441504504E-15,-23.7,-5.1));
#1316=CARTESIAN_POINT('',(-2.22044604925031E-15,38.4,-5.10000000000002));
#1317=CARTESIAN_POINT('',(-10.5,38.4,-5.10000000000002));
#1318=CARTESIAN_POINT('',(-1.37160441504504E-15,30.9,-5.1));
#1319=CARTESIAN_POINT('',(-3.33066907387547E-15,19.2,-5.10000000000001));
#1320=CARTESIAN_POINT('',(-1.37160441504504E-15,30.9,-5.1));
#1321=CARTESIAN_POINT('Origin',(-16.,-41.,-11.1));
#1322=CARTESIAN_POINT('',(-16.,40.5,-11.1));
#1323=CARTESIAN_POINT('',(-14.6809643080776,40.5,-10.7882279273638));
#1324=CARTESIAN_POINT('',(-16.,-40.5,-11.1));
#1325=CARTESIAN_POINT('',(-16.,-41.,-11.1));
#1326=CARTESIAN_POINT('',(-10.5,-40.5,-9.8));
#1327=CARTESIAN_POINT('',(-10.5,-19.2,-9.8));
#1328=CARTESIAN_POINT('Origin',(-16.,-41.,-12.1));
#1329=CARTESIAN_POINT('',(-16.,40.5,-12.1));
#1330=CARTESIAN_POINT('',(-16.,40.5,-11.525));
#1331=CARTESIAN_POINT('',(-16.,-40.5,-12.1));
#1332=CARTESIAN_POINT('',(-16.,-41.,-12.1));
#1333=CARTESIAN_POINT('',(-16.,-40.5,-11.1));
#1334=CARTESIAN_POINT('Origin',(2.,-41.,-3.10000000000002));
#1335=CARTESIAN_POINT('',(2.,-43.,-0.100000000000014));
#1336=CARTESIAN_POINT('',(2.,-43.,-12.1));
#1337=CARTESIAN_POINT('',(2.,-43.,-3.10000000000002));
#1338=CARTESIAN_POINT('',(4.,-41.,-12.1));
#1339=CARTESIAN_POINT('Origin',(2.,-41.,-12.1));
#1340=CARTESIAN_POINT('',(4.,-41.,-2.10000000000001));
#1341=CARTESIAN_POINT('',(4.,-41.,-3.10000000000002));
#1342=CARTESIAN_POINT('Origin',(2.,-41.,-2.10000000000001));
#1343=CARTESIAN_POINT('Origin',(2.,21.5,-2.10000000000003));
#1344=CARTESIAN_POINT('',(4.,41.,-2.10000000000003));
#1345=CARTESIAN_POINT('',(4.,21.5,-2.10000000000003));
#1346=CARTESIAN_POINT('',(2.,43.,-0.10000000000003));
#1347=CARTESIAN_POINT('Origin',(2.,41.,-2.10000000000003));
#1348=CARTESIAN_POINT('',(2.,21.5,-0.100000000000026));
#1349=CARTESIAN_POINT('Origin',(2.,41.,-9.10000000000003));
#1350=CARTESIAN_POINT('',(4.,41.,-12.1));
#1351=CARTESIAN_POINT('',(4.,41.,-9.10000000000003));
#1352=CARTESIAN_POINT('',(2.,43.,-12.1));
#1353=CARTESIAN_POINT('Origin',(2.,41.,-12.1));
#1354=CARTESIAN_POINT('',(2.,43.,-9.10000000000003));
#1355=CARTESIAN_POINT('Origin',(4.,0.,-6.10000000000002));
#1356=CARTESIAN_POINT('',(4.,43.,-12.1));
#1357=CARTESIAN_POINT('Origin',(-2.9636452539366E-15,41.,-12.1));
#1358=CARTESIAN_POINT('',(1.24239243231862E-15,-43.,-12.1));
#1359=CARTESIAN_POINT('',(1.24239243231862E-15,-43.,-12.1));
#1360=CARTESIAN_POINT('',(-2.9636452539366E-15,-40.5,-12.1));
#1361=CARTESIAN_POINT('',(1.24239243231862E-15,43.,-12.1));
#1362=CARTESIAN_POINT('',(-2.9636452539366E-15,-40.5,-12.1));
#1363=CARTESIAN_POINT('',(-2.9636452539366E-15,40.5,-12.1));
#1364=CARTESIAN_POINT('',(-2.9636452539366E-15,40.5,-12.1));
#1365=CARTESIAN_POINT('',(1.24239243231862E-15,43.,-12.1));
#1366=CARTESIAN_POINT('',(1.24239243231862E-15,43.,-12.1));
#1367=CARTESIAN_POINT('',(1.24239243231862E-15,43.,-12.1));
#1368=CARTESIAN_POINT('Origin',(2.82842532464027E-15,-2.54898143408837E-15,
-6.10000000000002));
#1369=CARTESIAN_POINT('',(-2.9636452539366E-15,-40.5,-12.1));
#1370=CARTESIAN_POINT('',(4.41445821696193E-15,-43.,-0.100000000000014));
#1371=CARTESIAN_POINT('',(1.24239243231862E-15,-43.,-12.1));
#1372=CARTESIAN_POINT('',(4.41445821696192E-15,43.,-0.10000000000003));
#1373=CARTESIAN_POINT('',(4.41445821696193E-15,-43.,-0.100000000000014));
#1374=CARTESIAN_POINT('',(4.41445821696192E-15,43.,-0.10000000000003));
#1375=CARTESIAN_POINT('',(-6.36816335556624E-16,40.5,-2.6));
#1376=CARTESIAN_POINT('',(-4.46199049628542E-15,30.9,-6.475));
#1377=CARTESIAN_POINT('',(-2.22044604925031E-15,38.4,-9.80000000000001));
#1378=CARTESIAN_POINT('',(-5.55111512312578E-15,38.4,-8.57500000000001));
#1379=CARTESIAN_POINT('',(-2.22044604925031E-15,-38.4,-9.8));
#1380=CARTESIAN_POINT('',(-1.11022302462516E-15,-19.2,-9.80000000000001));
#1381=CARTESIAN_POINT('',(-2.22044604925031E-15,-38.4,-5.1));
#1382=CARTESIAN_POINT('',(1.11022302462516E-15,-38.4,-6.475));
#1383=CARTESIAN_POINT('',(-3.33066907387547E-15,19.2,-5.10000000000001));
#1384=CARTESIAN_POINT('Origin',(4.41445821696192E-15,43.,-0.10000000000003));
#1385=CARTESIAN_POINT('',(4.41445821696192E-15,43.,-0.10000000000003));
#1386=CARTESIAN_POINT('',(4.41445821696193E-15,-43.,-0.100000000000014));
#1387=CARTESIAN_POINT('Origin',(1.24239243231862E-15,43.,-12.1));
#1388=CARTESIAN_POINT('Origin',(4.41445821696193E-15,-43.,-0.100000000000013));
#1389=CARTESIAN_POINT('Origin',(-2.9636452539366E-15,-40.5,-12.1));
#1390=CARTESIAN_POINT('Origin',(-6.36816335556624E-16,40.5,-2.6));
#1391=CARTESIAN_POINT('Origin',(-1.37160441504504E-15,-23.7,-5.1));
#1392=CARTESIAN_POINT('',(-10.5,-38.4,-5.09999999999999));
#1393=CARTESIAN_POINT('Origin',(-1.37160441504504E-15,30.9,-5.6));
#1394=CARTESIAN_POINT('Origin',(-10.5,-38.4,-5.59999999999999));
#1395=CARTESIAN_POINT('',(-10.5,-38.4,-9.8));
#1396=CARTESIAN_POINT('Origin',(-10.5,-38.4,-9.8));
#1397=CARTESIAN_POINT('',(-10.5,38.4,-9.80000000000001));
#1398=CARTESIAN_POINT('Origin',(-10.5,38.4,-9.80000000000001));
#1399=CARTESIAN_POINT('Origin',(-10.5,0.,-7.35));
#1400=CARTESIAN_POINT('Origin',(-10.5,0.,-7.35));
#1401=UNCERTAINTY_MEASURE_WITH_UNIT(LENGTH_MEASURE(0.01),#1405,
'DISTANCE_ACCURACY_VALUE',
'Maximum model space distance between geometric entities at asserted c
onnectivities');
#1402=UNCERTAINTY_MEASURE_WITH_UNIT(LENGTH_MEASURE(0.01),#1405,
'DISTANCE_ACCURACY_VALUE',
'Maximum model space distance between geometric entities at asserted c
onnectivities');
#1403=(
GEOMETRIC_REPRESENTATION_CONTEXT(3)
GLOBAL_UNCERTAINTY_ASSIGNED_CONTEXT((#1401))
GLOBAL_UNIT_ASSIGNED_CONTEXT((#1405,#1407,#1408))
REPRESENTATION_CONTEXT('','3D')
);
#1404=(
GEOMETRIC_REPRESENTATION_CONTEXT(3)
GLOBAL_UNCERTAINTY_ASSIGNED_CONTEXT((#1402))
GLOBAL_UNIT_ASSIGNED_CONTEXT((#1405,#1407,#1408))
REPRESENTATION_CONTEXT('','3D')
);
#1405=(
LENGTH_UNIT()
NAMED_UNIT(*)
SI_UNIT(.MILLI.,.METRE.)
);
#1406=(
LENGTH_UNIT()
NAMED_UNIT(*)
SI_UNIT(.CENTI.,.METRE.)
);
#1407=(
NAMED_UNIT(*)
PLANE_ANGLE_UNIT()
SI_UNIT($,.RADIAN.)
);
#1408=(
NAMED_UNIT(*)
SI_UNIT($,.STERADIAN.)
SOLID_ANGLE_UNIT()
);
#1409=SHAPE_DEFINITION_REPRESENTATION(#1410,#1411);
#1410=PRODUCT_DEFINITION_SHAPE('',$,#1413);
#1411=SHAPE_REPRESENTATION('',(#876),#1403);
#1412=PRODUCT_DEFINITION_CONTEXT('part definition',#1417,'design');
#1413=PRODUCT_DEFINITION('\X2\04120441044204300432043A0430\X0\ \X2\0445043E043B043E0434\X0\ 
\X2\044004430447043A0438\X0\ 2',
'\X2\04120441044204300432043A0430\X0\ \X2\0445043E043B043E0434\X0\ \X2\044004430447043A0438\X0\ 
2',#1414,#1412);
#1414=PRODUCT_DEFINITION_FORMATION('',$,#1419);
#1415=PRODUCT_RELATED_PRODUCT_CATEGORY(
'\X2\04120441044204300432043A0430\X0\ \X2\0445043E043B043E0434\X0\ \X2\044004430447043A0438\X0\ 
2','\X2\04120441044204300432043A0430\X0\ \X2\0445043E043B043E0434\X0\ 
\X2\044004430447043A0438\X0\ 2',(#1419));
#1416=APPLICATION_PROTOCOL_DEFINITION('international standard',
'automotive_design',2009,#1417);
#1417=APPLICATION_CONTEXT(
'Core Data for Automotive Mechanical Design Process');
#1418=PRODUCT_CONTEXT('part definition',#1417,'mechanical');
#1419=PRODUCT('\X2\04120441044204300432043A0430\X0\ \X2\0445043E043B043E0434\X0\ 
\X2\044004430447043A0438\X0\ 2',
'\X2\04120441044204300432043A0430\X0\ \X2\0445043E043B043E0434\X0\ \X2\044004430447043A0438\X0\ 
2',$,(#1418));
#1420=PRESENTATION_STYLE_ASSIGNMENT((#1422));
#1421=PRESENTATION_STYLE_ASSIGNMENT((#1423));
#1422=SURFACE_STYLE_USAGE(.BOTH.,#1428);
#1423=SURFACE_STYLE_USAGE(.BOTH.,#1429);
#1424=SURFACE_STYLE_RENDERING_WITH_PROPERTIES($,#1436,(#1426));
#1425=SURFACE_STYLE_RENDERING_WITH_PROPERTIES($,#1437,(#1427));
#1426=SURFACE_STYLE_TRANSPARENT(0.);
#1427=SURFACE_STYLE_TRANSPARENT(0.);
#1428=SURFACE_SIDE_STYLE('',(#1430,#1424));
#1429=SURFACE_SIDE_STYLE('',(#1431,#1425));
#1430=SURFACE_STYLE_FILL_AREA(#1432);
#1431=SURFACE_STYLE_FILL_AREA(#1433);
#1432=FILL_AREA_STYLE('',(#1434));
#1433=FILL_AREA_STYLE('',(#1435));
#1434=FILL_AREA_STYLE_COLOUR('',#1436);
#1435=FILL_AREA_STYLE_COLOUR('',#1437);
#1436=COLOUR_RGB('',0.749019607843137,0.749019607843137,0.749019607843137);
#1437=COLOUR_RGB('',1.,0.890196078431372,0.709803921568627);
ENDSEC;
END-ISO-10303-21;
