ISO-10303-21;
HEADER;
/* Generated by software containing ST-Developer
 * from STEP Tools, Inc. (www.steptools.com) 
 */

FILE_DESCRIPTION(
/* description */ (''),
/* implementation_level */ '2;1');

FILE_NAME(
/* name */ 
'D:\\Programm\\YandexDisk\\YandexDisk\\\X2\041704300433044004430437043A0438\X0\\\
\X2\041F0440043E0435043A0442044B\X0\\\Siemens\\\X2\041A043B044E0447\X0\ 
\X2\043A044004430433043B044B0439\X0\ 55 (42 \X2\043B044B0441043A0438\X0\).
stp',
/* time_stamp */ '2019-10-14T20:06:37+03:00',
/* author */ ('Alexey'),
/* organization */ (''),
/* preprocessor_version */ 'ST-DEVELOPER v17',
/* originating_system */ 'Autodesk Inventor 2019',
/* authorisation */ '');

FILE_SCHEMA (('AUTOMOTIVE_DESIGN { 1 0 10303 214 3 1 1 }'));
ENDSEC;

DATA;
#10=MECHANICAL_DESIGN_GEOMETRIC_PRESENTATION_REPRESENTATION('',(#13),#358);
#11=SHAPE_REPRESENTATION_RELATIONSHIP('SRR','None',#365,#12);
#12=ADVANCED_BREP_SHAPE_REPRESENTATION('',(#14),#357);
#13=STYLED_ITEM('',(#374),#14);
#14=MANIFOLD_SOLID_BREP('\X2\04220432043504400434043E0435\X0\ \X2\04420435043B043E\X0\1',
#164);
#15=FACE_BOUND('',#44,.T.);
#16=FACE_BOUND('',#46,.T.);
#17=CIRCLE('',#186,25.);
#18=CIRCLE('',#187,25.);
#19=CIRCLE('',#190,25.);
#20=CIRCLE('',#193,25.);
#21=CIRCLE('',#195,27.5);
#22=CIRCLE('',#196,27.5);
#23=PLANE('',#185);
#24=PLANE('',#188);
#25=PLANE('',#191);
#26=PLANE('',#197);
#27=PLANE('',#198);
#28=FACE_OUTER_BOUND('',#37,.T.);
#29=FACE_OUTER_BOUND('',#38,.T.);
#30=FACE_OUTER_BOUND('',#39,.T.);
#31=FACE_OUTER_BOUND('',#40,.T.);
#32=FACE_OUTER_BOUND('',#41,.T.);
#33=FACE_OUTER_BOUND('',#42,.T.);
#34=FACE_OUTER_BOUND('',#43,.T.);
#35=FACE_OUTER_BOUND('',#45,.T.);
#36=FACE_OUTER_BOUND('',#47,.T.);
#37=EDGE_LOOP('',(#109,#110,#111,#112,#113,#114));
#38=EDGE_LOOP('',(#115,#116,#117,#118));
#39=EDGE_LOOP('',(#119,#120,#121,#122));
#40=EDGE_LOOP('',(#123,#124,#125,#126));
#41=EDGE_LOOP('',(#127,#128,#129,#130));
#42=EDGE_LOOP('',(#131,#132,#133,#134));
#43=EDGE_LOOP('',(#135,#136,#137,#138,#139,#140,#141,#142,#143));
#44=EDGE_LOOP('',(#144));
#45=EDGE_LOOP('',(#145));
#46=EDGE_LOOP('',(#146,#147,#148,#149));
#47=EDGE_LOOP('',(#150));
#48=LINE('',#280,#59);
#49=LINE('',#324,#60);
#50=LINE('',#328,#61);
#51=LINE('',#332,#62);
#52=LINE('',#334,#63);
#53=LINE('',#335,#64);
#54=LINE('',#338,#65);
#55=LINE('',#342,#66);
#56=LINE('',#343,#67);
#57=LINE('',#349,#68);
#58=LINE('',#351,#69);
#59=VECTOR('',#203,10.);
#60=VECTOR('',#206,10.);
#61=VECTOR('',#209,10.);
#62=VECTOR('',#214,10.);
#63=VECTOR('',#215,10.);
#64=VECTOR('',#216,10.);
#65=VECTOR('',#219,10.);
#66=VECTOR('',#224,10.);
#67=VECTOR('',#225,10.);
#68=VECTOR('',#234,27.5);
#69=VECTOR('',#235,27.5);
#70=B_SPLINE_CURVE_WITH_KNOTS('',3,(#245,#246,#247,#248,#249,#250,#251,
#252,#253,#254,#255,#256,#257,#258,#259,#260,#261,#262,#263,#264,#265,#266,
#267,#268,#269,#270,#271,#272,#273,#274,#275,#276,#277,#278),
 .UNSPECIFIED.,.T.,.F.,(4,2,2,2,2,2,2,2,2,2,2,2,2,2,2,2,4),(0.,0.380622002137828,
0.761244004275656,1.14161052326934,1.52197704226302,1.9023435612567,2.28271008025038,
2.6633320823882,3.04395408452603,3.42457608666386,3.80519808880169,4.18556460779537,
4.56593112678905,4.94629764578273,5.32666416477641,5.70728616691424,6.08790816905206),
 .UNSPECIFIED.);
#71=B_SPLINE_CURVE_WITH_KNOTS('',3,(#282,#283,#284,#285,#286,#287,#288,
#289,#290,#291),.UNSPECIFIED.,.F.,.F.,(4,2,2,2,4),(4.56593112678905,4.94629764578273,
5.32666416477641,5.70728616691424,6.08790816905206),.UNSPECIFIED.);
#72=B_SPLINE_CURVE_WITH_KNOTS('',3,(#293,#294,#295,#296,#297,#298,#299,
#300,#301,#302,#303,#304,#305,#306,#307,#308,#309,#310),.UNSPECIFIED.,.F.,
 .F.,(4,2,2,2,2,2,2,2,4),(1.52197704226302,1.9023435612567,2.28271008025038,
2.6633320823882,3.04395408452603,3.42457608666386,3.80519808880169,4.18556460779537,
4.56593112678905),.UNSPECIFIED.);
#73=B_SPLINE_CURVE_WITH_KNOTS('',3,(#311,#312,#313,#314,#315,#316,#317,
#318,#319,#320),.UNSPECIFIED.,.F.,.F.,(4,2,2,2,4),(0.,0.380622002137828,
0.761244004275657,1.14161052326934,1.52197704226302),.UNSPECIFIED.);
#74=VERTEX_POINT('',#244);
#75=VERTEX_POINT('',#279);
#76=VERTEX_POINT('',#281);
#77=VERTEX_POINT('',#292);
#78=VERTEX_POINT('',#322);
#79=VERTEX_POINT('',#323);
#80=VERTEX_POINT('',#325);
#81=VERTEX_POINT('',#327);
#82=VERTEX_POINT('',#331);
#83=VERTEX_POINT('',#333);
#84=VERTEX_POINT('',#337);
#85=VERTEX_POINT('',#341);
#86=VERTEX_POINT('',#347);
#87=VERTEX_POINT('',#350);
#88=EDGE_CURVE('',#74,#74,#70,.T.);
#89=EDGE_CURVE('',#74,#75,#48,.T.);
#90=EDGE_CURVE('',#76,#75,#71,.T.);
#91=EDGE_CURVE('',#77,#76,#72,.T.);
#92=EDGE_CURVE('',#75,#77,#73,.T.);
#93=EDGE_CURVE('',#78,#79,#49,.T.);
#94=EDGE_CURVE('',#80,#78,#17,.T.);
#95=EDGE_CURVE('',#81,#80,#50,.T.);
#96=EDGE_CURVE('',#79,#81,#18,.T.);
#97=EDGE_CURVE('',#82,#80,#51,.T.);
#98=EDGE_CURVE('',#83,#82,#52,.T.);
#99=EDGE_CURVE('',#83,#81,#53,.T.);
#100=EDGE_CURVE('',#84,#78,#54,.T.);
#101=EDGE_CURVE('',#82,#84,#19,.T.);
#102=EDGE_CURVE('',#85,#79,#55,.T.);
#103=EDGE_CURVE('',#84,#85,#56,.T.);
#104=EDGE_CURVE('',#85,#83,#20,.T.);
#105=EDGE_CURVE('',#86,#86,#21,.T.);
#106=EDGE_CURVE('',#86,#76,#57,.T.);
#107=EDGE_CURVE('',#77,#87,#58,.T.);
#108=EDGE_CURVE('',#87,#87,#22,.T.);
#109=ORIENTED_EDGE('',*,*,#88,.F.);
#110=ORIENTED_EDGE('',*,*,#89,.T.);
#111=ORIENTED_EDGE('',*,*,#90,.F.);
#112=ORIENTED_EDGE('',*,*,#91,.F.);
#113=ORIENTED_EDGE('',*,*,#92,.F.);
#114=ORIENTED_EDGE('',*,*,#89,.F.);
#115=ORIENTED_EDGE('',*,*,#93,.F.);
#116=ORIENTED_EDGE('',*,*,#94,.F.);
#117=ORIENTED_EDGE('',*,*,#95,.F.);
#118=ORIENTED_EDGE('',*,*,#96,.F.);
#119=ORIENTED_EDGE('',*,*,#95,.T.);
#120=ORIENTED_EDGE('',*,*,#97,.F.);
#121=ORIENTED_EDGE('',*,*,#98,.F.);
#122=ORIENTED_EDGE('',*,*,#99,.T.);
#123=ORIENTED_EDGE('',*,*,#94,.T.);
#124=ORIENTED_EDGE('',*,*,#100,.F.);
#125=ORIENTED_EDGE('',*,*,#101,.F.);
#126=ORIENTED_EDGE('',*,*,#97,.T.);
#127=ORIENTED_EDGE('',*,*,#93,.T.);
#128=ORIENTED_EDGE('',*,*,#102,.F.);
#129=ORIENTED_EDGE('',*,*,#103,.F.);
#130=ORIENTED_EDGE('',*,*,#100,.T.);
#131=ORIENTED_EDGE('',*,*,#96,.T.);
#132=ORIENTED_EDGE('',*,*,#99,.F.);
#133=ORIENTED_EDGE('',*,*,#104,.F.);
#134=ORIENTED_EDGE('',*,*,#102,.T.);
#135=ORIENTED_EDGE('',*,*,#105,.F.);
#136=ORIENTED_EDGE('',*,*,#106,.T.);
#137=ORIENTED_EDGE('',*,*,#90,.T.);
#138=ORIENTED_EDGE('',*,*,#92,.T.);
#139=ORIENTED_EDGE('',*,*,#107,.T.);
#140=ORIENTED_EDGE('',*,*,#108,.F.);
#141=ORIENTED_EDGE('',*,*,#107,.F.);
#142=ORIENTED_EDGE('',*,*,#91,.T.);
#143=ORIENTED_EDGE('',*,*,#106,.F.);
#144=ORIENTED_EDGE('',*,*,#88,.T.);
#145=ORIENTED_EDGE('',*,*,#108,.T.);
#146=ORIENTED_EDGE('',*,*,#103,.T.);
#147=ORIENTED_EDGE('',*,*,#104,.T.);
#148=ORIENTED_EDGE('',*,*,#98,.T.);
#149=ORIENTED_EDGE('',*,*,#101,.T.);
#150=ORIENTED_EDGE('',*,*,#105,.T.);
#151=CYLINDRICAL_SURFACE('',#184,10.);
#152=CYLINDRICAL_SURFACE('',#189,25.);
#153=CYLINDRICAL_SURFACE('',#192,25.);
#154=CYLINDRICAL_SURFACE('',#194,27.5);
#155=ADVANCED_FACE('',(#28),#151,.F.);
#156=ADVANCED_FACE('',(#29),#23,.F.);
#157=ADVANCED_FACE('',(#30),#24,.F.);
#158=ADVANCED_FACE('',(#31),#152,.F.);
#159=ADVANCED_FACE('',(#32),#25,.F.);
#160=ADVANCED_FACE('',(#33),#153,.F.);
#161=ADVANCED_FACE('',(#34,#15),#154,.T.);
#162=ADVANCED_FACE('',(#35,#16),#26,.F.);
#163=ADVANCED_FACE('',(#36),#27,.T.);
#164=CLOSED_SHELL('',(#155,#156,#157,#158,#159,#160,#161,#162,#163));
#165=DERIVED_UNIT_ELEMENT(#167,1.);
#166=DERIVED_UNIT_ELEMENT(#360,3.);
#167=(
MASS_UNIT()
NAMED_UNIT(*)
SI_UNIT($,.GRAM.)
);
#168=DERIVED_UNIT((#165,#166));
#169=MEASURE_REPRESENTATION_ITEM('density measure',
POSITIVE_RATIO_MEASURE(1.),#168);
#170=PROPERTY_DEFINITION_REPRESENTATION(#175,#172);
#171=PROPERTY_DEFINITION_REPRESENTATION(#176,#173);
#172=REPRESENTATION('material name',(#174),#357);
#173=REPRESENTATION('density',(#169),#357);
#174=DESCRIPTIVE_REPRESENTATION_ITEM('\X2\04220438043F043E0432044B0435\X0\',
'\X2\04220438043F043E0432044B0435\X0\');
#175=PROPERTY_DEFINITION('material property','material name',#367);
#176=PROPERTY_DEFINITION('material property','density of part',#367);
#177=DATE_TIME_ROLE('creation_date');
#178=APPLIED_DATE_AND_TIME_ASSIGNMENT(#179,#177,(#367));
#179=DATE_AND_TIME(#180,#181);
#180=CALENDAR_DATE(2019,14,10);
#181=LOCAL_TIME(19,37,35.,#182);
#182=COORDINATED_UNIVERSAL_TIME_OFFSET(0,0,.BEHIND.);
#183=AXIS2_PLACEMENT_3D('placement',#242,#199,#200);
#184=AXIS2_PLACEMENT_3D('',#243,#201,#202);
#185=AXIS2_PLACEMENT_3D('',#321,#204,#205);
#186=AXIS2_PLACEMENT_3D('',#326,#207,#208);
#187=AXIS2_PLACEMENT_3D('',#329,#210,#211);
#188=AXIS2_PLACEMENT_3D('',#330,#212,#213);
#189=AXIS2_PLACEMENT_3D('',#336,#217,#218);
#190=AXIS2_PLACEMENT_3D('',#339,#220,#221);
#191=AXIS2_PLACEMENT_3D('',#340,#222,#223);
#192=AXIS2_PLACEMENT_3D('',#344,#226,#227);
#193=AXIS2_PLACEMENT_3D('',#345,#228,#229);
#194=AXIS2_PLACEMENT_3D('',#346,#230,#231);
#195=AXIS2_PLACEMENT_3D('',#348,#232,#233);
#196=AXIS2_PLACEMENT_3D('',#352,#236,#237);
#197=AXIS2_PLACEMENT_3D('',#353,#238,#239);
#198=AXIS2_PLACEMENT_3D('',#354,#240,#241);
#199=DIRECTION('axis',(0.,0.,1.));
#200=DIRECTION('refdir',(1.,0.,0.));
#201=DIRECTION('center_axis',(1.,0.,0.));
#202=DIRECTION('ref_axis',(0.,-1.,0.));
#203=DIRECTION('',(1.,0.,0.));
#204=DIRECTION('center_axis',(0.,0.,1.));
#205=DIRECTION('ref_axis',(1.,0.,0.));
#206=DIRECTION('',(0.,-1.,0.));
#207=DIRECTION('center_axis',(0.,0.,1.));
#208=DIRECTION('ref_axis',(1.,0.,0.));
#209=DIRECTION('',(0.,1.,0.));
#210=DIRECTION('center_axis',(0.,0.,1.));
#211=DIRECTION('ref_axis',(1.,0.,0.));
#212=DIRECTION('center_axis',(1.,0.,0.));
#213=DIRECTION('ref_axis',(0.,1.,0.));
#214=DIRECTION('',(0.,0.,1.));
#215=DIRECTION('',(0.,1.,0.));
#216=DIRECTION('',(0.,0.,1.));
#217=DIRECTION('center_axis',(0.,0.,1.));
#218=DIRECTION('ref_axis',(1.,0.,0.));
#219=DIRECTION('',(0.,0.,1.));
#220=DIRECTION('center_axis',(0.,0.,1.));
#221=DIRECTION('ref_axis',(1.,0.,0.));
#222=DIRECTION('center_axis',(-1.,0.,0.));
#223=DIRECTION('ref_axis',(0.,-1.,0.));
#224=DIRECTION('',(0.,0.,1.));
#225=DIRECTION('',(0.,-1.,0.));
#226=DIRECTION('center_axis',(0.,0.,1.));
#227=DIRECTION('ref_axis',(1.,0.,0.));
#228=DIRECTION('center_axis',(0.,0.,1.));
#229=DIRECTION('ref_axis',(1.,0.,0.));
#230=DIRECTION('center_axis',(0.,0.,1.));
#231=DIRECTION('ref_axis',(-1.,0.,0.));
#232=DIRECTION('center_axis',(0.,0.,1.));
#233=DIRECTION('ref_axis',(-1.,0.,0.));
#234=DIRECTION('',(0.,0.,-1.));
#235=DIRECTION('',(0.,0.,-1.));
#236=DIRECTION('center_axis',(0.,0.,-1.));
#237=DIRECTION('ref_axis',(-1.,0.,0.));
#238=DIRECTION('center_axis',(0.,0.,1.));
#239=DIRECTION('ref_axis',(1.,0.,0.));
#240=DIRECTION('center_axis',(0.,0.,1.));
#241=DIRECTION('ref_axis',(1.,0.,0.));
#242=CARTESIAN_POINT('',(0.,0.,0.));
#243=CARTESIAN_POINT('Origin',(0.,0.,120.));
#244=CARTESIAN_POINT('',(-25.617376914899,10.,120.));
#245=CARTESIAN_POINT('Ctrl Pts',(-25.617376914899,10.,120.));
#246=CARTESIAN_POINT('Ctrl Pts',(-25.617376914899,10.,121.268740007126));
#247=CARTESIAN_POINT('Ctrl Pts',(-25.7215649704871,9.74404862796601,122.613079762171));
#248=CARTESIAN_POINT('Ctrl Pts',(-26.0864766719617,8.72015515054926,125.072828045337));
#249=CARTESIAN_POINT('Ctrl Pts',(-26.3407744215327,7.95273347577384,126.189402147957));
#250=CARTESIAN_POINT('Ctrl Pts',(-26.809797179307,6.18999394431844,127.952141679413));
#251=CARTESIAN_POINT('Ctrl Pts',(-27.0565438494029,5.07318906945168,128.720016117895));
#252=CARTESIAN_POINT('Ctrl Pts',(-27.403800967059,2.61256674712656,129.744250927616));
#253=CARTESIAN_POINT('Ctrl Pts',(-27.5,1.2678883966456,130.));
#254=CARTESIAN_POINT('Ctrl Pts',(-27.5,-1.2678883966456,130.));
#255=CARTESIAN_POINT('Ctrl Pts',(-27.403800967059,-2.61256674712656,129.744250927616));
#256=CARTESIAN_POINT('Ctrl Pts',(-27.0565438494029,-5.07318906945168,128.720016117895));
#257=CARTESIAN_POINT('Ctrl Pts',(-26.809797179307,-6.18999394431843,127.952141679413));
#258=CARTESIAN_POINT('Ctrl Pts',(-26.3407744215327,-7.95273347577383,126.189402147957));
#259=CARTESIAN_POINT('Ctrl Pts',(-26.0864766719617,-8.72015515054928,125.072828045337));
#260=CARTESIAN_POINT('Ctrl Pts',(-25.7215649704871,-9.74404862796603,122.613079762171));
#261=CARTESIAN_POINT('Ctrl Pts',(-25.617376914899,-10.,121.268740007126));
#262=CARTESIAN_POINT('Ctrl Pts',(-25.617376914899,-10.,118.731259992874));
#263=CARTESIAN_POINT('Ctrl Pts',(-25.7215649704871,-9.74404862796602,117.386920237829));
#264=CARTESIAN_POINT('Ctrl Pts',(-26.0864766719617,-8.72015515054927,114.927171954663));
#265=CARTESIAN_POINT('Ctrl Pts',(-26.3407744215327,-7.95273347577384,113.810597852043));
#266=CARTESIAN_POINT('Ctrl Pts',(-26.809797179307,-6.18999394431843,112.047858320587));
#267=CARTESIAN_POINT('Ctrl Pts',(-27.0565438494029,-5.07318906945168,111.279983882105));
#268=CARTESIAN_POINT('Ctrl Pts',(-27.403800967059,-2.61256674712656,110.255749072384));
#269=CARTESIAN_POINT('Ctrl Pts',(-27.5,-1.2678883966456,110.));
#270=CARTESIAN_POINT('Ctrl Pts',(-27.5,1.2678883966456,110.));
#271=CARTESIAN_POINT('Ctrl Pts',(-27.403800967059,2.61256674712656,110.255749072384));
#272=CARTESIAN_POINT('Ctrl Pts',(-27.0565438494029,5.07318906945168,111.279983882105));
#273=CARTESIAN_POINT('Ctrl Pts',(-26.809797179307,6.18999394431843,112.047858320587));
#274=CARTESIAN_POINT('Ctrl Pts',(-26.3407744215327,7.95273347577383,113.810597852043));
#275=CARTESIAN_POINT('Ctrl Pts',(-26.0864766719617,8.72015515054926,114.927171954663));
#276=CARTESIAN_POINT('Ctrl Pts',(-25.7215649704871,9.74404862796601,117.386920237829));
#277=CARTESIAN_POINT('Ctrl Pts',(-25.617376914899,10.,118.731259992874));
#278=CARTESIAN_POINT('Ctrl Pts',(-25.617376914899,10.,120.));
#279=CARTESIAN_POINT('',(25.617376914899,10.,120.));
#280=CARTESIAN_POINT('',(0.,10.,120.));
#281=CARTESIAN_POINT('',(27.5,2.10022298306204E-15,130.));
#282=CARTESIAN_POINT('Ctrl Pts',(27.5,6.93889390390723E-16,130.));
#283=CARTESIAN_POINT('Ctrl Pts',(27.5,1.2678883966456,130.));
#284=CARTESIAN_POINT('Ctrl Pts',(27.403800967059,2.61256674712655,129.744250927616));
#285=CARTESIAN_POINT('Ctrl Pts',(27.0565438494029,5.07318906945168,128.720016117895));
#286=CARTESIAN_POINT('Ctrl Pts',(26.809797179307,6.18999394431843,127.952141679413));
#287=CARTESIAN_POINT('Ctrl Pts',(26.3407744215327,7.95273347577384,126.189402147957));
#288=CARTESIAN_POINT('Ctrl Pts',(26.0864766719617,8.72015515054926,125.072828045337));
#289=CARTESIAN_POINT('Ctrl Pts',(25.7215649704871,9.74404862796601,122.613079762171));
#290=CARTESIAN_POINT('Ctrl Pts',(25.617376914899,10.,121.268740007126));
#291=CARTESIAN_POINT('Ctrl Pts',(25.617376914899,10.,120.));
#292=CARTESIAN_POINT('',(27.5,4.3488844612431E-16,110.));
#293=CARTESIAN_POINT('Ctrl Pts',(27.5,-2.77555756156289E-15,110.));
#294=CARTESIAN_POINT('Ctrl Pts',(27.5,-1.2678883966456,110.));
#295=CARTESIAN_POINT('Ctrl Pts',(27.403800967059,-2.61256674712656,110.255749072384));
#296=CARTESIAN_POINT('Ctrl Pts',(27.0565438494029,-5.07318906945169,111.279983882105));
#297=CARTESIAN_POINT('Ctrl Pts',(26.809797179307,-6.18999394431844,112.047858320587));
#298=CARTESIAN_POINT('Ctrl Pts',(26.3407744215327,-7.95273347577383,113.810597852043));
#299=CARTESIAN_POINT('Ctrl Pts',(26.0864766719617,-8.72015515054927,114.927171954663));
#300=CARTESIAN_POINT('Ctrl Pts',(25.7215649704871,-9.74404862796602,117.386920237829));
#301=CARTESIAN_POINT('Ctrl Pts',(25.617376914899,-10.,118.731259992874));
#302=CARTESIAN_POINT('Ctrl Pts',(25.617376914899,-10.,121.268740007126));
#303=CARTESIAN_POINT('Ctrl Pts',(25.7215649704871,-9.74404862796603,122.613079762171));
#304=CARTESIAN_POINT('Ctrl Pts',(26.0864766719617,-8.72015515054929,125.072828045337));
#305=CARTESIAN_POINT('Ctrl Pts',(26.3407744215327,-7.95273347577383,126.189402147957));
#306=CARTESIAN_POINT('Ctrl Pts',(26.809797179307,-6.18999394431843,127.952141679413));
#307=CARTESIAN_POINT('Ctrl Pts',(27.0565438494029,-5.07318906945169,128.720016117895));
#308=CARTESIAN_POINT('Ctrl Pts',(27.403800967059,-2.61256674712656,129.744250927616));
#309=CARTESIAN_POINT('Ctrl Pts',(27.5,-1.2678883966456,130.));
#310=CARTESIAN_POINT('Ctrl Pts',(27.5,1.38777878078145E-15,130.));
#311=CARTESIAN_POINT('Ctrl Pts',(25.617376914899,10.,120.));
#312=CARTESIAN_POINT('Ctrl Pts',(25.617376914899,10.,118.731259992874));
#313=CARTESIAN_POINT('Ctrl Pts',(25.7215649704871,9.74404862796601,117.386920237829));
#314=CARTESIAN_POINT('Ctrl Pts',(26.0864766719617,8.72015515054926,114.927171954663));
#315=CARTESIAN_POINT('Ctrl Pts',(26.3407744215327,7.95273347577383,113.810597852043));
#316=CARTESIAN_POINT('Ctrl Pts',(26.809797179307,6.18999394431843,112.047858320587));
#317=CARTESIAN_POINT('Ctrl Pts',(27.0565438494029,5.07318906945169,111.279983882105));
#318=CARTESIAN_POINT('Ctrl Pts',(27.403800967059,2.61256674712657,110.255749072384));
#319=CARTESIAN_POINT('Ctrl Pts',(27.5,1.2678883966456,110.));
#320=CARTESIAN_POINT('Ctrl Pts',(27.5,-3.33066907387547E-15,110.));
#321=CARTESIAN_POINT('Origin',(-2.43380803013824E-15,0.,100.));
#322=CARTESIAN_POINT('',(-21.,13.5646599662505,100.));
#323=CARTESIAN_POINT('',(-21.,-13.5646599662505,100.));
#324=CARTESIAN_POINT('',(-21.,6.78232998312527,100.));
#325=CARTESIAN_POINT('',(21.,13.5646599662505,100.));
#326=CARTESIAN_POINT('Origin',(0.,0.,100.));
#327=CARTESIAN_POINT('',(21.,-13.5646599662505,100.));
#328=CARTESIAN_POINT('',(21.,-6.78232998312527,100.));
#329=CARTESIAN_POINT('Origin',(0.,0.,100.));
#330=CARTESIAN_POINT('Origin',(21.,-13.5646599662505,0.));
#331=CARTESIAN_POINT('',(21.,13.5646599662505,0.));
#332=CARTESIAN_POINT('',(21.,13.5646599662505,0.));
#333=CARTESIAN_POINT('',(21.,-13.5646599662505,0.));
#334=CARTESIAN_POINT('',(21.,-6.78232998312527,0.));
#335=CARTESIAN_POINT('',(21.,-13.5646599662505,0.));
#336=CARTESIAN_POINT('Origin',(0.,0.,0.));
#337=CARTESIAN_POINT('',(-21.,13.5646599662505,0.));
#338=CARTESIAN_POINT('',(-21.,13.5646599662505,0.));
#339=CARTESIAN_POINT('Origin',(0.,0.,0.));
#340=CARTESIAN_POINT('Origin',(-21.,13.5646599662505,0.));
#341=CARTESIAN_POINT('',(-21.,-13.5646599662505,0.));
#342=CARTESIAN_POINT('',(-21.,-13.5646599662505,0.));
#343=CARTESIAN_POINT('',(-21.,6.78232998312527,0.));
#344=CARTESIAN_POINT('Origin',(0.,0.,0.));
#345=CARTESIAN_POINT('Origin',(0.,0.,0.));
#346=CARTESIAN_POINT('Origin',(0.,0.,0.));
#347=CARTESIAN_POINT('',(27.5,3.36777869765522E-15,140.));
#348=CARTESIAN_POINT('Origin',(0.,0.,140.));
#349=CARTESIAN_POINT('',(27.5,3.36777869765522E-15,0.));
#350=CARTESIAN_POINT('',(27.5,3.36777869765522E-15,0.));
#351=CARTESIAN_POINT('',(27.5,3.36777869765522E-15,0.));
#352=CARTESIAN_POINT('Origin',(0.,0.,0.));
#353=CARTESIAN_POINT('Origin',(-2.43380803013824E-15,0.,0.));
#354=CARTESIAN_POINT('Origin',(-2.43380803013824E-15,0.,140.));
#355=UNCERTAINTY_MEASURE_WITH_UNIT(LENGTH_MEASURE(0.01),#359,
'DISTANCE_ACCURACY_VALUE',
'Maximum model space distance between geometric entities at asserted c
onnectivities');
#356=UNCERTAINTY_MEASURE_WITH_UNIT(LENGTH_MEASURE(0.01),#359,
'DISTANCE_ACCURACY_VALUE',
'Maximum model space distance between geometric entities at asserted c
onnectivities');
#357=(
GEOMETRIC_REPRESENTATION_CONTEXT(3)
GLOBAL_UNCERTAINTY_ASSIGNED_CONTEXT((#355))
GLOBAL_UNIT_ASSIGNED_CONTEXT((#359,#362,#361))
REPRESENTATION_CONTEXT('','3D')
);
#358=(
GEOMETRIC_REPRESENTATION_CONTEXT(3)
GLOBAL_UNCERTAINTY_ASSIGNED_CONTEXT((#356))
GLOBAL_UNIT_ASSIGNED_CONTEXT((#359,#362,#361))
REPRESENTATION_CONTEXT('','3D')
);
#359=(
LENGTH_UNIT()
NAMED_UNIT(*)
SI_UNIT(.MILLI.,.METRE.)
);
#360=(
LENGTH_UNIT()
NAMED_UNIT(*)
SI_UNIT(.CENTI.,.METRE.)
);
#361=(
NAMED_UNIT(*)
SI_UNIT($,.STERADIAN.)
SOLID_ANGLE_UNIT()
);
#362=(
NAMED_UNIT(*)
PLANE_ANGLE_UNIT()
SI_UNIT($,.RADIAN.)
);
#363=SHAPE_DEFINITION_REPRESENTATION(#364,#365);
#364=PRODUCT_DEFINITION_SHAPE('',$,#367);
#365=SHAPE_REPRESENTATION('',(#183),#357);
#366=PRODUCT_DEFINITION_CONTEXT('part definition',#371,'design');
#367=PRODUCT_DEFINITION('\X2\041A043B044E0447\X0\ \X2\043A044004430433043B044B0439\X0\ 
55 (42 \X2\043B044B0441043A0438\X0\)',
'\X2\041A043B044E0447\X0\ \X2\043A044004430433043B044B0439\X0\ 55 (42 
\X2\043B044B0441043A0438\X0\)',#368,#366);
#368=PRODUCT_DEFINITION_FORMATION('',$,#373);
#369=PRODUCT_RELATED_PRODUCT_CATEGORY(
'\X2\041A043B044E0447\X0\ \X2\043A044004430433043B044B0439\X0\ 55 (42 
\X2\043B044B0441043A0438\X0\)',
'\X2\041A043B044E0447\X0\ \X2\043A044004430433043B044B0439\X0\ 55 (42 
\X2\043B044B0441043A0438\X0\)',(#373));
#370=APPLICATION_PROTOCOL_DEFINITION('international standard',
'automotive_design',2009,#371);
#371=APPLICATION_CONTEXT(
'Core Data for Automotive Mechanical Design Process');
#372=PRODUCT_CONTEXT('part definition',#371,'mechanical');
#373=PRODUCT('\X2\041A043B044E0447\X0\ \X2\043A044004430433043B044B0439\X0\ 
55 (42 \X2\043B044B0441043A0438\X0\)',
'\X2\041A043B044E0447\X0\ \X2\043A044004430433043B044B0439\X0\ 55 (42 
\X2\043B044B0441043A0438\X0\)',$,(#372));
#374=PRESENTATION_STYLE_ASSIGNMENT((#375));
#375=SURFACE_STYLE_USAGE(.BOTH.,#376);
#376=SURFACE_SIDE_STYLE('',(#377));
#377=SURFACE_STYLE_FILL_AREA(#378);
#378=FILL_AREA_STYLE('',(#379));
#379=FILL_AREA_STYLE_COLOUR('',#380);
#380=COLOUR_RGB('',0.749019607843137,0.749019607843137,0.749019607843137);
ENDSEC;
END-ISO-10303-21;
