ISO-10303-21;
HEADER;
/* Generated by software containing ST-Developer
 * from STEP Tools, Inc. (www.steptools.com) 
 */

FILE_DESCRIPTION(
/* description */ (''),
/* implementation_level */ '2;1');

FILE_NAME(
/* name */ 
'D:\\\X2\041B043504480430\X0\\\Siemens\\\X2\041A0440044B0448043A0430\X0\ 
\X2\043F043E044004430447043D044F\X0\ \X2\0441043804340435043D044C044F\X0\ 
\X2\042D0421\X0\1.stp',
/* time_stamp */ '2020-06-08T13:18:53+03:00',
/* author */ ('Maria'),
/* organization */ (''),
/* preprocessor_version */ 'ST-DEVELOPER v17',
/* originating_system */ 'Autodesk Inventor 2019',
/* authorisation */ '');

FILE_SCHEMA (('AUTOMOTIVE_DESIGN { 1 0 10303 214 3 1 1 }'));
ENDSEC;

DATA;
#10=MECHANICAL_DESIGN_GEOMETRIC_PRESENTATION_REPRESENTATION('',(#13),#501);
#11=SHAPE_REPRESENTATION_RELATIONSHIP('SRR','None',#508,#12);
#12=ADVANCED_BREP_SHAPE_REPRESENTATION('',(#14),#500);
#13=STYLED_ITEM('',(#517),#14);
#14=MANIFOLD_SOLID_BREP('\X2\04220432043504400434043E0435\X0\ \X2\04420435043B043E\X0\1',
#257);
#15=CONICAL_SURFACE('',#296,3.70358983848622,0.523598775598299);
#16=CONICAL_SURFACE('',#299,3.70358983848622,0.523598775598299);
#17=LINE('',#443,#23);
#18=LINE('',#453,#24);
#19=LINE('',#457,#25);
#20=LINE('',#462,#26);
#21=LINE('',#479,#27);
#22=LINE('',#493,#28);
#23=VECTOR('',#350,4.05);
#24=VECTOR('',#363,4.05);
#25=VECTOR('',#368,3.70358983848622);
#26=VECTOR('',#375,3.70358983848622);
#27=VECTOR('',#396,34.85);
#28=VECTOR('',#413,32.35);
#29=CYLINDRICAL_SURFACE('',#288,4.05);
#30=CYLINDRICAL_SURFACE('',#294,4.05);
#31=CYLINDRICAL_SURFACE('',#310,34.85);
#32=CYLINDRICAL_SURFACE('',#318,32.35);
#33=FACE_BOUND('',#58,.T.);
#34=FACE_BOUND('',#59,.T.);
#35=FACE_BOUND('',#73,.T.);
#36=PLANE('',#283);
#37=PLANE('',#298);
#38=PLANE('',#301);
#39=PLANE('',#309);
#40=PLANE('',#321);
#41=FACE_OUTER_BOUND('',#56,.T.);
#42=FACE_OUTER_BOUND('',#57,.T.);
#43=FACE_OUTER_BOUND('',#60,.T.);
#44=FACE_OUTER_BOUND('',#61,.T.);
#45=FACE_OUTER_BOUND('',#62,.T.);
#46=FACE_OUTER_BOUND('',#63,.T.);
#47=FACE_OUTER_BOUND('',#64,.T.);
#48=FACE_OUTER_BOUND('',#65,.T.);
#49=FACE_OUTER_BOUND('',#66,.T.);
#50=FACE_OUTER_BOUND('',#67,.T.);
#51=FACE_OUTER_BOUND('',#68,.T.);
#52=FACE_OUTER_BOUND('',#69,.T.);
#53=FACE_OUTER_BOUND('',#70,.T.);
#54=FACE_OUTER_BOUND('',#71,.T.);
#55=FACE_OUTER_BOUND('',#72,.T.);
#56=EDGE_LOOP('',(#166,#167,#168,#169,#170,#171));
#57=EDGE_LOOP('',(#172,#173));
#58=EDGE_LOOP('',(#174,#175));
#59=EDGE_LOOP('',(#176,#177));
#60=EDGE_LOOP('',(#178,#179,#180,#181,#182));
#61=EDGE_LOOP('',(#183,#184,#185,#186,#187,#188));
#62=EDGE_LOOP('',(#189,#190,#191,#192,#193));
#63=EDGE_LOOP('',(#194,#195,#196,#197));
#64=EDGE_LOOP('',(#198));
#65=EDGE_LOOP('',(#199,#200,#201,#202));
#66=EDGE_LOOP('',(#203));
#67=EDGE_LOOP('',(#204,#205,#206,#207,#208,#209,#210));
#68=EDGE_LOOP('',(#211,#212));
#69=EDGE_LOOP('',(#213,#214,#215,#216,#217,#218,#219));
#70=EDGE_LOOP('',(#220,#221,#222,#223,#224,#225,#226));
#71=EDGE_LOOP('',(#227,#228,#229,#230,#231,#232,#233));
#72=EDGE_LOOP('',(#234,#235));
#73=EDGE_LOOP('',(#236,#237));
#74=CIRCLE('',#278,4.05);
#75=CIRCLE('',#279,2.);
#76=CIRCLE('',#280,6.05);
#77=CIRCLE('',#281,6.05);
#78=CIRCLE('',#282,4.05);
#79=CIRCLE('',#284,30.35);
#80=CIRCLE('',#285,30.35);
#81=CIRCLE('',#286,6.05);
#82=CIRCLE('',#287,6.05);
#83=CIRCLE('',#289,4.05);
#84=CIRCLE('',#291,4.05);
#85=CIRCLE('',#292,2.);
#86=CIRCLE('',#293,4.05);
#87=CIRCLE('',#295,4.05);
#88=CIRCLE('',#297,3.35717967697245);
#89=CIRCLE('',#300,3.35717967697245);
#90=CIRCLE('',#303,33.35);
#91=CIRCLE('',#304,1.5);
#92=CIRCLE('',#305,34.85);
#93=CIRCLE('',#306,34.85);
#94=CIRCLE('',#307,34.85);
#95=CIRCLE('',#308,33.35);
#96=CIRCLE('',#311,34.85);
#97=CIRCLE('',#312,34.85);
#98=CIRCLE('',#314,2.);
#99=CIRCLE('',#315,32.35);
#100=CIRCLE('',#316,32.35);
#101=CIRCLE('',#317,32.35);
#102=CIRCLE('',#319,32.35);
#103=CIRCLE('',#320,32.35);
#104=VERTEX_POINT('',#422);
#105=VERTEX_POINT('',#423);
#106=VERTEX_POINT('',#425);
#107=VERTEX_POINT('',#427);
#108=VERTEX_POINT('',#432);
#109=VERTEX_POINT('',#433);
#110=VERTEX_POINT('',#436);
#111=VERTEX_POINT('',#437);
#112=VERTEX_POINT('',#441);
#113=VERTEX_POINT('',#445);
#114=VERTEX_POINT('',#446);
#115=VERTEX_POINT('',#451);
#116=VERTEX_POINT('',#455);
#117=VERTEX_POINT('',#460);
#118=VERTEX_POINT('',#465);
#119=VERTEX_POINT('',#466);
#120=VERTEX_POINT('',#468);
#121=VERTEX_POINT('',#470);
#122=VERTEX_POINT('',#472);
#123=VERTEX_POINT('',#478);
#124=VERTEX_POINT('',#480);
#125=VERTEX_POINT('',#484);
#126=VERTEX_POINT('',#486);
#127=VERTEX_POINT('',#488);
#128=VERTEX_POINT('',#492);
#129=VERTEX_POINT('',#494);
#130=EDGE_CURVE('',#104,#105,#74,.T.);
#131=EDGE_CURVE('',#105,#106,#75,.T.);
#132=EDGE_CURVE('',#106,#107,#76,.T.);
#133=EDGE_CURVE('',#107,#106,#77,.T.);
#134=EDGE_CURVE('',#105,#104,#78,.T.);
#135=EDGE_CURVE('',#108,#109,#79,.T.);
#136=EDGE_CURVE('',#109,#108,#80,.T.);
#137=EDGE_CURVE('',#110,#111,#81,.T.);
#138=EDGE_CURVE('',#111,#110,#82,.T.);
#139=EDGE_CURVE('',#112,#112,#83,.T.);
#140=EDGE_CURVE('',#112,#104,#17,.T.);
#141=EDGE_CURVE('',#113,#114,#84,.T.);
#142=EDGE_CURVE('',#114,#111,#85,.T.);
#143=EDGE_CURVE('',#114,#113,#86,.T.);
#144=EDGE_CURVE('',#115,#115,#87,.T.);
#145=EDGE_CURVE('',#115,#113,#18,.T.);
#146=EDGE_CURVE('',#116,#116,#88,.T.);
#147=EDGE_CURVE('',#116,#115,#19,.T.);
#148=EDGE_CURVE('',#117,#117,#89,.T.);
#149=EDGE_CURVE('',#117,#112,#20,.T.);
#150=EDGE_CURVE('',#118,#119,#90,.T.);
#151=EDGE_CURVE('',#119,#120,#91,.T.);
#152=EDGE_CURVE('',#120,#121,#92,.T.);
#153=EDGE_CURVE('',#121,#122,#93,.T.);
#154=EDGE_CURVE('',#122,#120,#94,.T.);
#155=EDGE_CURVE('',#119,#118,#95,.T.);
#156=EDGE_CURVE('',#122,#123,#21,.T.);
#157=EDGE_CURVE('',#123,#124,#96,.T.);
#158=EDGE_CURVE('',#124,#123,#97,.T.);
#159=EDGE_CURVE('',#109,#125,#98,.T.);
#160=EDGE_CURVE('',#125,#126,#99,.T.);
#161=EDGE_CURVE('',#126,#127,#100,.T.);
#162=EDGE_CURVE('',#127,#125,#101,.T.);
#163=EDGE_CURVE('',#126,#128,#22,.T.);
#164=EDGE_CURVE('',#129,#128,#102,.T.);
#165=EDGE_CURVE('',#128,#129,#103,.T.);
#166=ORIENTED_EDGE('',*,*,#130,.T.);
#167=ORIENTED_EDGE('',*,*,#131,.T.);
#168=ORIENTED_EDGE('',*,*,#132,.T.);
#169=ORIENTED_EDGE('',*,*,#133,.T.);
#170=ORIENTED_EDGE('',*,*,#131,.F.);
#171=ORIENTED_EDGE('',*,*,#134,.T.);
#172=ORIENTED_EDGE('',*,*,#135,.F.);
#173=ORIENTED_EDGE('',*,*,#136,.F.);
#174=ORIENTED_EDGE('',*,*,#137,.F.);
#175=ORIENTED_EDGE('',*,*,#138,.F.);
#176=ORIENTED_EDGE('',*,*,#133,.F.);
#177=ORIENTED_EDGE('',*,*,#132,.F.);
#178=ORIENTED_EDGE('',*,*,#139,.F.);
#179=ORIENTED_EDGE('',*,*,#140,.T.);
#180=ORIENTED_EDGE('',*,*,#134,.F.);
#181=ORIENTED_EDGE('',*,*,#130,.F.);
#182=ORIENTED_EDGE('',*,*,#140,.F.);
#183=ORIENTED_EDGE('',*,*,#141,.T.);
#184=ORIENTED_EDGE('',*,*,#142,.T.);
#185=ORIENTED_EDGE('',*,*,#138,.T.);
#186=ORIENTED_EDGE('',*,*,#137,.T.);
#187=ORIENTED_EDGE('',*,*,#142,.F.);
#188=ORIENTED_EDGE('',*,*,#143,.T.);
#189=ORIENTED_EDGE('',*,*,#144,.F.);
#190=ORIENTED_EDGE('',*,*,#145,.T.);
#191=ORIENTED_EDGE('',*,*,#143,.F.);
#192=ORIENTED_EDGE('',*,*,#141,.F.);
#193=ORIENTED_EDGE('',*,*,#145,.F.);
#194=ORIENTED_EDGE('',*,*,#146,.T.);
#195=ORIENTED_EDGE('',*,*,#147,.T.);
#196=ORIENTED_EDGE('',*,*,#144,.T.);
#197=ORIENTED_EDGE('',*,*,#147,.F.);
#198=ORIENTED_EDGE('',*,*,#146,.F.);
#199=ORIENTED_EDGE('',*,*,#148,.T.);
#200=ORIENTED_EDGE('',*,*,#149,.T.);
#201=ORIENTED_EDGE('',*,*,#139,.T.);
#202=ORIENTED_EDGE('',*,*,#149,.F.);
#203=ORIENTED_EDGE('',*,*,#148,.F.);
#204=ORIENTED_EDGE('',*,*,#150,.T.);
#205=ORIENTED_EDGE('',*,*,#151,.T.);
#206=ORIENTED_EDGE('',*,*,#152,.T.);
#207=ORIENTED_EDGE('',*,*,#153,.T.);
#208=ORIENTED_EDGE('',*,*,#154,.T.);
#209=ORIENTED_EDGE('',*,*,#151,.F.);
#210=ORIENTED_EDGE('',*,*,#155,.T.);
#211=ORIENTED_EDGE('',*,*,#150,.F.);
#212=ORIENTED_EDGE('',*,*,#155,.F.);
#213=ORIENTED_EDGE('',*,*,#153,.F.);
#214=ORIENTED_EDGE('',*,*,#152,.F.);
#215=ORIENTED_EDGE('',*,*,#154,.F.);
#216=ORIENTED_EDGE('',*,*,#156,.T.);
#217=ORIENTED_EDGE('',*,*,#157,.T.);
#218=ORIENTED_EDGE('',*,*,#158,.T.);
#219=ORIENTED_EDGE('',*,*,#156,.F.);
#220=ORIENTED_EDGE('',*,*,#135,.T.);
#221=ORIENTED_EDGE('',*,*,#159,.T.);
#222=ORIENTED_EDGE('',*,*,#160,.T.);
#223=ORIENTED_EDGE('',*,*,#161,.T.);
#224=ORIENTED_EDGE('',*,*,#162,.T.);
#225=ORIENTED_EDGE('',*,*,#159,.F.);
#226=ORIENTED_EDGE('',*,*,#136,.T.);
#227=ORIENTED_EDGE('',*,*,#162,.F.);
#228=ORIENTED_EDGE('',*,*,#161,.F.);
#229=ORIENTED_EDGE('',*,*,#163,.T.);
#230=ORIENTED_EDGE('',*,*,#164,.F.);
#231=ORIENTED_EDGE('',*,*,#165,.F.);
#232=ORIENTED_EDGE('',*,*,#163,.F.);
#233=ORIENTED_EDGE('',*,*,#160,.F.);
#234=ORIENTED_EDGE('',*,*,#158,.F.);
#235=ORIENTED_EDGE('',*,*,#157,.F.);
#236=ORIENTED_EDGE('',*,*,#164,.T.);
#237=ORIENTED_EDGE('',*,*,#165,.T.);
#238=TOROIDAL_SURFACE('',#277,6.05,2.);
#239=TOROIDAL_SURFACE('',#290,6.05,2.);
#240=TOROIDAL_SURFACE('',#302,33.35,1.5);
#241=TOROIDAL_SURFACE('',#313,30.35,2.);
#242=ADVANCED_FACE('',(#41),#238,.F.);
#243=ADVANCED_FACE('',(#42,#33,#34),#36,.T.);
#244=ADVANCED_FACE('',(#43),#29,.T.);
#245=ADVANCED_FACE('',(#44),#239,.F.);
#246=ADVANCED_FACE('',(#45),#30,.T.);
#247=ADVANCED_FACE('',(#46),#15,.T.);
#248=ADVANCED_FACE('',(#47),#37,.T.);
#249=ADVANCED_FACE('',(#48),#16,.T.);
#250=ADVANCED_FACE('',(#49),#38,.T.);
#251=ADVANCED_FACE('',(#50),#240,.T.);
#252=ADVANCED_FACE('',(#51),#39,.T.);
#253=ADVANCED_FACE('',(#52),#31,.T.);
#254=ADVANCED_FACE('',(#53),#241,.F.);
#255=ADVANCED_FACE('',(#54),#32,.F.);
#256=ADVANCED_FACE('',(#55,#35),#40,.T.);
#257=CLOSED_SHELL('',(#242,#243,#244,#245,#246,#247,#248,#249,#250,#251,
#252,#253,#254,#255,#256));
#258=DERIVED_UNIT_ELEMENT(#260,1.);
#259=DERIVED_UNIT_ELEMENT(#503,3.);
#260=(
MASS_UNIT()
NAMED_UNIT(*)
SI_UNIT($,.GRAM.)
);
#261=DERIVED_UNIT((#258,#259));
#262=MEASURE_REPRESENTATION_ITEM('density measure',
POSITIVE_RATIO_MEASURE(1.022),#261);
#263=PROPERTY_DEFINITION_REPRESENTATION(#268,#265);
#264=PROPERTY_DEFINITION_REPRESENTATION(#269,#266);
#265=REPRESENTATION('material name',(#267),#500);
#266=REPRESENTATION('density',(#262),#500);
#267=DESCRIPTIVE_REPRESENTATION_ITEM(
'\X2\041F043E043B04380441044204380440043E043B\X0\, \X2\0432044B0441043E043A043E043F0440043E0447043D044B0439\X0\',
'\X2\041F043E043B04380441044204380440043E043B\X0\, \X2\0432044B0441043E043A043E043F0440043E0447043D044B0439\X0\');
#268=PROPERTY_DEFINITION('material property','material name',#510);
#269=PROPERTY_DEFINITION('material property','density of part',#510);
#270=DATE_TIME_ROLE('creation_date');
#271=APPLIED_DATE_AND_TIME_ASSIGNMENT(#272,#270,(#510));
#272=DATE_AND_TIME(#273,#274);
#273=CALENDAR_DATE(2020,8,6);
#274=LOCAL_TIME(13,0,32.,#275);
#275=COORDINATED_UNIVERSAL_TIME_OFFSET(0,0,.BEHIND.);
#276=AXIS2_PLACEMENT_3D('placement',#420,#322,#323);
#277=AXIS2_PLACEMENT_3D('',#421,#324,#325);
#278=AXIS2_PLACEMENT_3D('',#424,#326,#327);
#279=AXIS2_PLACEMENT_3D('',#426,#328,#329);
#280=AXIS2_PLACEMENT_3D('',#428,#330,#331);
#281=AXIS2_PLACEMENT_3D('',#429,#332,#333);
#282=AXIS2_PLACEMENT_3D('',#430,#334,#335);
#283=AXIS2_PLACEMENT_3D('',#431,#336,#337);
#284=AXIS2_PLACEMENT_3D('',#434,#338,#339);
#285=AXIS2_PLACEMENT_3D('',#435,#340,#341);
#286=AXIS2_PLACEMENT_3D('',#438,#342,#343);
#287=AXIS2_PLACEMENT_3D('',#439,#344,#345);
#288=AXIS2_PLACEMENT_3D('',#440,#346,#347);
#289=AXIS2_PLACEMENT_3D('',#442,#348,#349);
#290=AXIS2_PLACEMENT_3D('',#444,#351,#352);
#291=AXIS2_PLACEMENT_3D('',#447,#353,#354);
#292=AXIS2_PLACEMENT_3D('',#448,#355,#356);
#293=AXIS2_PLACEMENT_3D('',#449,#357,#358);
#294=AXIS2_PLACEMENT_3D('',#450,#359,#360);
#295=AXIS2_PLACEMENT_3D('',#452,#361,#362);
#296=AXIS2_PLACEMENT_3D('',#454,#364,#365);
#297=AXIS2_PLACEMENT_3D('',#456,#366,#367);
#298=AXIS2_PLACEMENT_3D('',#458,#369,#370);
#299=AXIS2_PLACEMENT_3D('',#459,#371,#372);
#300=AXIS2_PLACEMENT_3D('',#461,#373,#374);
#301=AXIS2_PLACEMENT_3D('',#463,#376,#377);
#302=AXIS2_PLACEMENT_3D('',#464,#378,#379);
#303=AXIS2_PLACEMENT_3D('',#467,#380,#381);
#304=AXIS2_PLACEMENT_3D('',#469,#382,#383);
#305=AXIS2_PLACEMENT_3D('',#471,#384,#385);
#306=AXIS2_PLACEMENT_3D('',#473,#386,#387);
#307=AXIS2_PLACEMENT_3D('',#474,#388,#389);
#308=AXIS2_PLACEMENT_3D('',#475,#390,#391);
#309=AXIS2_PLACEMENT_3D('',#476,#392,#393);
#310=AXIS2_PLACEMENT_3D('',#477,#394,#395);
#311=AXIS2_PLACEMENT_3D('',#481,#397,#398);
#312=AXIS2_PLACEMENT_3D('',#482,#399,#400);
#313=AXIS2_PLACEMENT_3D('',#483,#401,#402);
#314=AXIS2_PLACEMENT_3D('',#485,#403,#404);
#315=AXIS2_PLACEMENT_3D('',#487,#405,#406);
#316=AXIS2_PLACEMENT_3D('',#489,#407,#408);
#317=AXIS2_PLACEMENT_3D('',#490,#409,#410);
#318=AXIS2_PLACEMENT_3D('',#491,#411,#412);
#319=AXIS2_PLACEMENT_3D('',#495,#414,#415);
#320=AXIS2_PLACEMENT_3D('',#496,#416,#417);
#321=AXIS2_PLACEMENT_3D('',#497,#418,#419);
#322=DIRECTION('axis',(0.,0.,1.));
#323=DIRECTION('refdir',(1.,0.,0.));
#324=DIRECTION('center_axis',(3.71762818965673E-19,1.,0.));
#325=DIRECTION('ref_axis',(0.,0.,1.));
#326=DIRECTION('center_axis',(3.71762818965673E-19,1.,0.));
#327=DIRECTION('ref_axis',(-1.,0.,0.));
#328=DIRECTION('center_axis',(-1.,3.71762818965673E-19,1.22464679914735E-16));
#329=DIRECTION('ref_axis',(-1.22464679914735E-16,0.,-1.));
#330=DIRECTION('center_axis',(-3.71762818965673E-19,-1.,0.));
#331=DIRECTION('ref_axis',(-1.,3.71762818965673E-19,0.));
#332=DIRECTION('center_axis',(-3.71762818965673E-19,-1.,0.));
#333=DIRECTION('ref_axis',(-1.,3.71762818965673E-19,0.));
#334=DIRECTION('center_axis',(3.71762818965673E-19,1.,0.));
#335=DIRECTION('ref_axis',(-1.,0.,0.));
#336=DIRECTION('center_axis',(-3.71762818965673E-19,-1.,0.));
#337=DIRECTION('ref_axis',(0.,0.,-1.));
#338=DIRECTION('center_axis',(3.71762818965673E-19,1.,0.));
#339=DIRECTION('ref_axis',(1.,-3.71762818965673E-19,0.));
#340=DIRECTION('center_axis',(3.71762818965673E-19,1.,0.));
#341=DIRECTION('ref_axis',(1.,-3.71762818965673E-19,0.));
#342=DIRECTION('center_axis',(-3.71762818965673E-19,-1.,0.));
#343=DIRECTION('ref_axis',(-1.,3.71762818965673E-19,0.));
#344=DIRECTION('center_axis',(-3.71762818965673E-19,-1.,0.));
#345=DIRECTION('ref_axis',(-1.,3.71762818965673E-19,0.));
#346=DIRECTION('center_axis',(0.,-1.,0.));
#347=DIRECTION('ref_axis',(-1.,0.,0.));
#348=DIRECTION('center_axis',(-3.71762818965674E-19,-1.,0.));
#349=DIRECTION('ref_axis',(-1.,0.,0.));
#350=DIRECTION('',(0.,1.,0.));
#351=DIRECTION('center_axis',(3.71762818965673E-19,1.,0.));
#352=DIRECTION('ref_axis',(0.,0.,1.));
#353=DIRECTION('center_axis',(3.71762818965673E-19,1.,0.));
#354=DIRECTION('ref_axis',(-1.,0.,0.));
#355=DIRECTION('center_axis',(-1.,3.71762818965673E-19,1.22464679914735E-16));
#356=DIRECTION('ref_axis',(-1.22464679914735E-16,0.,-1.));
#357=DIRECTION('center_axis',(3.71762818965673E-19,1.,0.));
#358=DIRECTION('ref_axis',(-1.,0.,0.));
#359=DIRECTION('center_axis',(0.,-1.,0.));
#360=DIRECTION('ref_axis',(-1.,0.,0.));
#361=DIRECTION('center_axis',(-3.71762818965674E-19,-1.,0.));
#362=DIRECTION('ref_axis',(-1.,0.,0.));
#363=DIRECTION('',(0.,1.,0.));
#364=DIRECTION('center_axis',(3.71762818965673E-19,1.,0.));
#365=DIRECTION('ref_axis',(-1.,1.6849524851754E-19,0.));
#366=DIRECTION('center_axis',(3.71762818965674E-19,1.,0.));
#367=DIRECTION('ref_axis',(-1.,3.71762818965674E-19,0.));
#368=DIRECTION('',(0.5,0.866025403784439,6.12323399573676E-17));
#369=DIRECTION('center_axis',(-3.71762818965674E-19,-1.,0.));
#370=DIRECTION('ref_axis',(0.,0.,-1.));
#371=DIRECTION('center_axis',(3.71762818965673E-19,1.,0.));
#372=DIRECTION('ref_axis',(-1.,1.6849524851754E-19,0.));
#373=DIRECTION('center_axis',(3.71762818965674E-19,1.,0.));
#374=DIRECTION('ref_axis',(-1.,3.71762818965674E-19,0.));
#375=DIRECTION('',(0.5,0.866025403784439,6.12323399573676E-17));
#376=DIRECTION('center_axis',(-3.71762818965674E-19,-1.,0.));
#377=DIRECTION('ref_axis',(0.,0.,-1.));
#378=DIRECTION('center_axis',(3.71762818965673E-19,1.,0.));
#379=DIRECTION('ref_axis',(0.,0.,1.));
#380=DIRECTION('center_axis',(-3.71762818965673E-19,-1.,0.));
#381=DIRECTION('ref_axis',(1.,-3.71762818965673E-19,0.));
#382=DIRECTION('center_axis',(-1.,3.71762818965673E-19,1.22464679914735E-16));
#383=DIRECTION('ref_axis',(-1.22464679914735E-16,0.,-1.));
#384=DIRECTION('center_axis',(3.71762818965673E-19,1.,0.));
#385=DIRECTION('ref_axis',(1.,0.,0.));
#386=DIRECTION('center_axis',(3.71762818965673E-19,1.,0.));
#387=DIRECTION('ref_axis',(1.,0.,0.));
#388=DIRECTION('center_axis',(3.71762818965673E-19,1.,0.));
#389=DIRECTION('ref_axis',(1.,0.,0.));
#390=DIRECTION('center_axis',(-3.71762818965673E-19,-1.,0.));
#391=DIRECTION('ref_axis',(1.,-3.71762818965673E-19,0.));
#392=DIRECTION('center_axis',(3.71762818965673E-19,1.,0.));
#393=DIRECTION('ref_axis',(0.,0.,1.));
#394=DIRECTION('center_axis',(3.71762818965673E-19,1.,0.));
#395=DIRECTION('ref_axis',(-1.,0.,0.));
#396=DIRECTION('',(-3.71762818965673E-19,-1.,0.));
#397=DIRECTION('center_axis',(3.71762818965673E-19,1.,0.));
#398=DIRECTION('ref_axis',(1.,-3.71762818965673E-19,0.));
#399=DIRECTION('center_axis',(3.71762818965673E-19,1.,0.));
#400=DIRECTION('ref_axis',(1.,-3.71762818965673E-19,0.));
#401=DIRECTION('center_axis',(3.71762818965673E-19,1.,0.));
#402=DIRECTION('ref_axis',(0.,0.,1.));
#403=DIRECTION('center_axis',(-1.,3.71762818965673E-19,1.22464679914735E-16));
#404=DIRECTION('ref_axis',(-1.22464679914735E-16,0.,-1.));
#405=DIRECTION('center_axis',(-3.71762818965673E-19,-1.,0.));
#406=DIRECTION('ref_axis',(1.,0.,0.));
#407=DIRECTION('center_axis',(-3.71762818965673E-19,-1.,0.));
#408=DIRECTION('ref_axis',(1.,0.,0.));
#409=DIRECTION('center_axis',(-3.71762818965673E-19,-1.,0.));
#410=DIRECTION('ref_axis',(1.,0.,0.));
#411=DIRECTION('center_axis',(3.71762818965673E-19,1.,0.));
#412=DIRECTION('ref_axis',(-1.,0.,0.));
#413=DIRECTION('',(-3.71762818965673E-19,-1.,0.));
#414=DIRECTION('center_axis',(3.71762818965673E-19,1.,0.));
#415=DIRECTION('ref_axis',(1.,-3.71762818965673E-19,0.));
#416=DIRECTION('center_axis',(3.71762818965673E-19,1.,0.));
#417=DIRECTION('ref_axis',(1.,-3.71762818965673E-19,0.));
#418=DIRECTION('center_axis',(-3.71762818965673E-19,-1.,0.));
#419=DIRECTION('ref_axis',(0.,0.,-1.));
#420=CARTESIAN_POINT('',(0.,0.,0.));
#421=CARTESIAN_POINT('Origin',(1.67293268534553E-18,2.5,22.));
#422=CARTESIAN_POINT('',(4.05,2.5,22.));
#423=CARTESIAN_POINT('',(-4.94309020969332E-16,2.5,17.95));
#424=CARTESIAN_POINT('Origin',(1.67293268534553E-18,2.5,22.));
#425=CARTESIAN_POINT('',(-7.38494855160872E-16,4.5,15.95));
#426=CARTESIAN_POINT('Origin',(-7.39238380798803E-16,2.5,15.95));
#427=CARTESIAN_POINT('',(6.05,4.5,22.));
#428=CARTESIAN_POINT('Origin',(2.41645832327688E-18,4.5,22.));
#429=CARTESIAN_POINT('Origin',(2.41645832327688E-18,4.5,22.));
#430=CARTESIAN_POINT('Origin',(1.67293268534553E-18,2.5,22.));
#431=CARTESIAN_POINT('Origin',(-32.35,4.5,0.));
#432=CARTESIAN_POINT('',(-30.35,4.5,3.71680303541222E-15));
#433=CARTESIAN_POINT('',(-3.71513010272687E-15,4.5,-30.35));
#434=CARTESIAN_POINT('Origin',(1.67293268534553E-18,4.5,0.));
#435=CARTESIAN_POINT('Origin',(1.67293268534553E-18,4.5,0.));
#436=CARTESIAN_POINT('',(6.05,4.5,-22.));
#437=CARTESIAN_POINT('',(-7.38494855160872E-16,4.5,-28.05));
#438=CARTESIAN_POINT('Origin',(2.41645832327688E-18,4.5,-22.));
#439=CARTESIAN_POINT('Origin',(2.41645832327688E-18,4.5,-22.));
#440=CARTESIAN_POINT('Origin',(1.67293268534553E-18,4.5,22.));
#441=CARTESIAN_POINT('',(4.05,-2.3,22.));
#442=CARTESIAN_POINT('Origin',(1.67293268534553E-18,-2.3,22.));
#443=CARTESIAN_POINT('',(4.05,4.5,22.));
#444=CARTESIAN_POINT('Origin',(1.67293268534553E-18,2.5,-22.));
#445=CARTESIAN_POINT('',(4.05,2.5,-22.));
#446=CARTESIAN_POINT('',(-4.94309020969333E-16,2.5,-26.05));
#447=CARTESIAN_POINT('Origin',(1.67293268534553E-18,2.5,-22.));
#448=CARTESIAN_POINT('Origin',(-7.39238380798803E-16,2.5,-28.05));
#449=CARTESIAN_POINT('Origin',(1.67293268534553E-18,2.5,-22.));
#450=CARTESIAN_POINT('Origin',(1.67293268534553E-18,4.5,-22.));
#451=CARTESIAN_POINT('',(4.05,-2.3,-22.));
#452=CARTESIAN_POINT('Origin',(1.67293268534553E-18,-2.3,-22.));
#453=CARTESIAN_POINT('',(4.05,4.5,-22.));
#454=CARTESIAN_POINT('Origin',(1.44987499396613E-18,-2.9,-22.));
#455=CARTESIAN_POINT('',(3.35717967697245,-3.5,-22.));
#456=CARTESIAN_POINT('Origin',(1.22681730258672E-18,-3.5,-22.));
#457=CARTESIAN_POINT('',(3.70358983848622,-2.9,-22.));
#458=CARTESIAN_POINT('Origin',(-4.10530073569989E-17,-3.5,-22.));
#459=CARTESIAN_POINT('Origin',(1.44987499396613E-18,-2.9,22.));
#460=CARTESIAN_POINT('',(3.35717967697245,-3.5,22.));
#461=CARTESIAN_POINT('Origin',(1.22681730258672E-18,-3.5,22.));
#462=CARTESIAN_POINT('',(3.70358983848622,-2.9,22.));
#463=CARTESIAN_POINT('Origin',(-4.10530073569989E-17,-3.5,22.));
#464=CARTESIAN_POINT('Origin',(2.04469550431121E-18,5.50000000000001,0.));
#465=CARTESIAN_POINT('',(-33.35,7.00000000000001,-4.08419707515642E-15));
#466=CARTESIAN_POINT('',(-4.08159473542366E-15,7.00000000000001,-33.35));
#467=CARTESIAN_POINT('Origin',(2.60233973275972E-18,7.00000000000001,0.));
#468=CARTESIAN_POINT('',(-4.26584939952421E-15,5.50000000000001,-34.85));
#469=CARTESIAN_POINT('Origin',(-4.08215237965211E-15,5.50000000000001,-33.35));
#470=CARTESIAN_POINT('',(-34.85,5.50000000000001,4.26789409502853E-15));
#471=CARTESIAN_POINT('Origin',(2.04469550431121E-18,5.50000000000001,0.));
#472=CARTESIAN_POINT('',(34.85,5.50000000000001,-4.26789409502853E-15));
#473=CARTESIAN_POINT('Origin',(2.04469550431121E-18,5.50000000000001,0.));
#474=CARTESIAN_POINT('Origin',(2.04469550431121E-18,5.50000000000001,0.));
#475=CARTESIAN_POINT('Origin',(2.60233973275972E-18,7.00000000000001,0.));
#476=CARTESIAN_POINT('Origin',(0.,7.00000000000001,0.));
#477=CARTESIAN_POINT('Origin',(1.30116986637986E-18,3.5,0.));
#478=CARTESIAN_POINT('',(34.85,0.,-4.26789409502853E-15));
#479=CARTESIAN_POINT('',(34.85,3.5,-4.26789409502853E-15));
#480=CARTESIAN_POINT('',(-34.85,0.,0.));
#481=CARTESIAN_POINT('Origin',(0.,0.,0.));
#482=CARTESIAN_POINT('Origin',(0.,0.,0.));
#483=CARTESIAN_POINT('Origin',(9.29407047414185E-19,2.5,0.));
#484=CARTESIAN_POINT('',(-3.96080298819427E-15,2.5,-32.35));
#485=CARTESIAN_POINT('Origin',(-3.7158736283648E-15,2.5,-30.35));
#486=CARTESIAN_POINT('',(32.35,2.5,-3.96173239524169E-15));
#487=CARTESIAN_POINT('Origin',(9.29407047414185E-19,2.5,0.));
#488=CARTESIAN_POINT('',(-32.35,2.5,-3.96173239524169E-15));
#489=CARTESIAN_POINT('Origin',(9.29407047414185E-19,2.5,0.));
#490=CARTESIAN_POINT('Origin',(9.29407047414185E-19,2.5,0.));
#491=CARTESIAN_POINT('Origin',(8.36466342672766E-19,2.25,0.));
#492=CARTESIAN_POINT('',(32.35,0.,-3.96173239524169E-15));
#493=CARTESIAN_POINT('',(32.35,2.25,-3.96173239524169E-15));
#494=CARTESIAN_POINT('',(-32.35,0.,0.));
#495=CARTESIAN_POINT('Origin',(0.,0.,0.));
#496=CARTESIAN_POINT('Origin',(0.,0.,0.));
#497=CARTESIAN_POINT('Origin',(-34.85,0.,0.));
#498=UNCERTAINTY_MEASURE_WITH_UNIT(LENGTH_MEASURE(0.01),#502,
'DISTANCE_ACCURACY_VALUE',
'Maximum model space distance between geometric entities at asserted c
onnectivities');
#499=UNCERTAINTY_MEASURE_WITH_UNIT(LENGTH_MEASURE(0.01),#502,
'DISTANCE_ACCURACY_VALUE',
'Maximum model space distance between geometric entities at asserted c
onnectivities');
#500=(
GEOMETRIC_REPRESENTATION_CONTEXT(3)
GLOBAL_UNCERTAINTY_ASSIGNED_CONTEXT((#498))
GLOBAL_UNIT_ASSIGNED_CONTEXT((#502,#505,#504))
REPRESENTATION_CONTEXT('','3D')
);
#501=(
GEOMETRIC_REPRESENTATION_CONTEXT(3)
GLOBAL_UNCERTAINTY_ASSIGNED_CONTEXT((#499))
GLOBAL_UNIT_ASSIGNED_CONTEXT((#502,#505,#504))
REPRESENTATION_CONTEXT('','3D')
);
#502=(
LENGTH_UNIT()
NAMED_UNIT(*)
SI_UNIT(.MILLI.,.METRE.)
);
#503=(
LENGTH_UNIT()
NAMED_UNIT(*)
SI_UNIT(.CENTI.,.METRE.)
);
#504=(
NAMED_UNIT(*)
SI_UNIT($,.STERADIAN.)
SOLID_ANGLE_UNIT()
);
#505=(
NAMED_UNIT(*)
PLANE_ANGLE_UNIT()
SI_UNIT($,.RADIAN.)
);
#506=SHAPE_DEFINITION_REPRESENTATION(#507,#508);
#507=PRODUCT_DEFINITION_SHAPE('',$,#510);
#508=SHAPE_REPRESENTATION('',(#276),#500);
#509=PRODUCT_DEFINITION_CONTEXT('part definition',#514,'design');
#510=PRODUCT_DEFINITION(
'\X2\041A0440044B0448043A0430\X0\ \X2\043F043E044004430447043D044F\X0\ 
\X2\0441043804340435043D044C044F\X0\ \X2\042D0421\X0\1',
'\X2\041A0440044B0448043A0430\X0\ \X2\043F043E044004430447043D044F\X0\ 
\X2\0441043804340435043D044C044F\X0\ \X2\042D0421\X0\1',#511,#509);
#511=PRODUCT_DEFINITION_FORMATION('',$,#516);
#512=PRODUCT_RELATED_PRODUCT_CATEGORY(
'\X2\041A0440044B0448043A0430\X0\ \X2\043F043E044004430447043D044F\X0\ 
\X2\0441043804340435043D044C044F\X0\ \X2\042D0421\X0\1',
'\X2\041A0440044B0448043A0430\X0\ \X2\043F043E044004430447043D044F\X0\ 
\X2\0441043804340435043D044C044F\X0\ \X2\042D0421\X0\1',(#516));
#513=APPLICATION_PROTOCOL_DEFINITION('international standard',
'automotive_design',2009,#514);
#514=APPLICATION_CONTEXT(
'Core Data for Automotive Mechanical Design Process');
#515=PRODUCT_CONTEXT('part definition',#514,'mechanical');
#516=PRODUCT('\X2\041A0440044B0448043A0430\X0\ \X2\043F043E044004430447043D044F\X0\ 
\X2\0441043804340435043D044C044F\X0\ \X2\042D0421\X0\1',
'\X2\041A0440044B0448043A0430\X0\ \X2\043F043E044004430447043D044F\X0\ 
\X2\0441043804340435043D044C044F\X0\ \X2\042D0421\X0\1',$,(#515));
#517=PRESENTATION_STYLE_ASSIGNMENT((#518));
#518=SURFACE_STYLE_USAGE(.BOTH.,#519);
#519=SURFACE_SIDE_STYLE('',(#520));
#520=SURFACE_STYLE_FILL_AREA(#521);
#521=FILL_AREA_STYLE('',(#522));
#522=FILL_AREA_STYLE_COLOUR('',#523);
#523=COLOUR_RGB('',0.92156862745098,0.92156862745098,0.92156862745098);
ENDSEC;
END-ISO-10303-21;
